<svg width="686" height="623" viewBox="0 0 686 623" fill="none" xmlns="http://www.w3.org/2000/svg">
<g opacity="0.54">
<path opacity="0.54" d="M-104.388 420.929C-120.293 399.961 -110.555 367.568 -90.0489 351.092C-69.5423 334.604 -41.9209 330.415 -15.6472 328.922C10.6264 327.417 37.6407 327.878 62.2632 318.614C113.22 299.431 140.283 244.917 161.093 194.603C181.903 144.29 205.081 89.1322 253.61 64.4247C291.66 45.0594 336.935 49.0781 378.798 40.7007C451.876 26.0826 515.144 -30.1314 538.237 -101" stroke="url(#paint0_linear_2114_1015)" stroke-width="0.8669" stroke-miterlimit="10"/>
<path opacity="0.54" d="M-101.486 427.412C-117.391 406.48 -107.872 374.16 -87.5842 357.503C-85.7752 356.009 -83.8933 354.625 -81.975 353.314C-62.379 340.056 -37.4772 336.183 -13.6439 334.556C-9.04241 334.24 -4.41658 333.985 0.20924 333.73C21.93 332.54 43.7964 331.302 64.0237 323.568C70.58 321.067 76.7478 317.971 82.5513 314.377C121.719 290.155 144.399 243.168 162.162 199.265C163.449 196.072 164.748 192.867 166.059 189.65C185.473 142.019 208.128 92.6531 252.104 68.152C264.682 61.1465 278.05 56.3386 292.316 53.3518C309.156 49.8187 326.87 48.8353 344.244 47.6819C356.106 46.8927 367.871 46.0064 379.442 44.173C384.881 43.311 390.284 42.2183 395.638 40.8828C429.731 32.396 461.626 14.0141 487.195 -10.669C512.825 -35.4129 532.239 -66.361 542.972 -100.332" stroke="url(#paint1_linear_2114_1015)" stroke-width="0.8669" stroke-miterlimit="10"/>
<path opacity="0.54" d="M-98.5843 433.896C-114.501 412.988 -105.201 380.753 -85.1317 363.913C-83.3348 362.408 -81.4772 360.999 -79.571 359.676C-60.1572 346.248 -35.389 342.095 -11.6285 340.189C-7.03914 339.825 -2.4376 339.521 2.17608 339.218C23.8239 337.797 45.6418 336.365 65.7963 328.534C72.3283 325.996 78.4839 322.888 84.2753 319.27C123.358 294.89 145.856 247.916 163.254 203.94C164.517 200.747 165.792 197.529 167.067 194.312C186.031 146.621 208.128 97.6919 250.647 71.9038C263.067 64.3641 276.229 58.6213 290.786 55.2339C307.99 51.2272 326.36 50.523 344.135 49.9038C356.264 49.4789 368.259 49.0661 380.097 47.6577C385.67 46.9899 391.194 46.0915 396.706 44.9138C431.782 37.4348 465.05 18.6765 491.25 -6.86869C517.512 -32.4625 536.962 -64.6247 547.695 -99.6765" stroke="url(#paint2_linear_2114_1015)" stroke-width="0.8669" stroke-miterlimit="10"/>
<path opacity="0.54" d="M-95.6945 440.379C-111.612 419.508 -102.542 387.346 -82.6791 370.336C-80.9064 368.818 -79.0731 367.386 -77.1791 366.05C-57.9352 352.44 -33.3127 348.008 -9.62508 345.835C-5.05996 345.422 -0.45842 345.058 4.13098 344.706C25.706 343.054 47.4631 341.428 67.5569 333.499C74.0646 330.938 80.196 327.805 85.9752 324.175C124.961 299.649 147.289 252.687 164.323 208.626C165.561 205.421 166.8 202.204 168.05 198.986C186.566 151.223 208.116 102.694 249.154 75.6553C261.429 67.5692 274.371 60.9158 289.232 57.1277C306.8 52.6355 325.826 52.2227 344.001 52.1498C356.41 52.0891 368.624 52.162 380.729 51.1664C386.423 50.705 392.093 49.9887 397.751 48.9688C433.81 42.4975 468.449 23.375 495.281 -3.03221C522.174 -29.488 541.661 -62.8522 552.406 -98.9846" stroke="url(#paint3_linear_2114_1015)" stroke-width="0.8669" stroke-miterlimit="10"/>
<path opacity="0.54" d="M-92.7929 446.874C-108.71 426.028 -99.8591 393.951 -80.2267 376.759C-78.4662 375.217 -76.6572 373.784 -74.7874 372.424C-55.7257 358.632 -31.2367 353.933 -7.62198 351.493C-3.069 351.019 1.50826 350.619 6.09765 350.218C27.5998 348.336 49.3084 346.503 69.3415 338.489C75.8249 335.891 81.9441 332.747 87.6991 329.092C126.6 304.421 148.733 257.459 165.427 213.325C166.642 210.12 167.856 206.89 169.07 203.661C187.136 155.836 208.128 107.623 247.697 79.4192C259.814 70.7746 272.562 63.2106 287.714 59.034C305.659 54.0561 325.328 53.9347 343.904 54.396C356.579 54.7117 369.024 55.2459 381.408 54.6753C387.224 54.4082 393.04 53.874 398.855 53.0241C435.898 47.5727 471.909 28.0616 499.373 0.804506C526.897 -26.5012 546.42 -61.0795 557.177 -98.2925" stroke="url(#paint4_linear_2114_1015)" stroke-width="0.8669" stroke-miterlimit="10"/>
<path opacity="0.54" d="M-89.891 453.358C-105.82 432.548 -97.1879 400.531 -77.774 383.169C-76.0378 381.615 -74.2409 380.158 -72.3833 378.786C-53.5036 364.812 -29.1482 359.846 -5.60631 357.126C-1.06548 356.604 3.49963 356.155 8.06474 355.706C29.4941 353.593 51.1541 351.565 71.1143 343.455C77.5735 340.833 83.6684 337.664 89.4234 333.985C128.239 309.156 150.19 262.218 166.52 217.999C167.71 214.782 168.888 211.565 170.078 208.323C187.695 160.438 208.116 112.48 246.228 83.1586C258.211 73.9434 270.729 65.493 286.173 60.9036C304.482 55.4522 324.806 55.6101 343.795 56.6056C356.75 57.2856 369.425 58.2933 382.064 58.1476C388.013 58.0747 393.951 57.7348 399.924 57.0427C437.95 52.599 475.333 32.7238 503.428 4.60461C531.572 -23.5631 551.143 -59.3434 561.913 -97.637" stroke="url(#paint5_linear_2114_1015)" stroke-width="0.8669" stroke-miterlimit="10"/>
<path opacity="0.54" d="M-86.9892 459.841C-102.919 439.055 -94.5168 407.124 -75.3093 389.58C-73.5974 388.014 -71.8126 386.532 -69.9793 385.148C-51.2696 371.004 -27.0599 365.747 -3.60297 362.772C0.925717 362.201 5.46654 361.691 10.0195 361.194C31.376 358.862 52.9753 356.628 72.8748 348.421C79.3097 345.762 85.3925 342.569 91.1232 338.878C129.854 313.903 151.623 266.965 167.589 222.674C168.754 219.456 169.908 216.227 171.061 212.985C188.229 165.039 208.08 117.276 244.734 86.9103C256.572 77.1123 268.871 67.7757 284.618 62.7978C303.292 56.8607 324.272 57.3099 343.661 58.8519C356.883 59.896 369.789 61.3772 382.696 61.6565C388.766 61.79 394.849 61.6322 400.98 61.098C439.99 57.662 478.745 37.4104 507.471 8.44133C536.246 -20.5763 555.854 -57.5707 566.636 -96.9448" stroke="url(#paint6_linear_2114_1015)" stroke-width="0.8669" stroke-miterlimit="10"/>
<path opacity="0.54" d="M-84.0997 466.325C-100.041 445.575 -91.8459 413.717 -72.8691 396.003C-71.1693 394.424 -69.4088 392.931 -67.5876 391.522C-49.0601 377.196 -24.9839 371.671 -1.59988 368.418C2.90453 367.798 7.44536 367.24 11.9741 366.694C33.2698 364.132 54.8084 361.691 74.6351 353.399C81.0457 350.716 87.1163 347.498 92.8227 343.783C131.468 318.663 153.056 271.737 168.657 227.36C169.786 224.131 170.915 220.901 172.044 217.66C188.763 169.653 208.007 122.023 243.241 90.6619C254.933 80.2569 267.013 70.0703 283.064 64.6796C302.102 58.2569 323.737 58.9975 343.528 61.0737C357.029 62.482 370.153 64.4368 383.339 65.141C389.543 65.4688 395.747 65.5052 402.036 65.1289C442.03 62.7127 482.157 42.0847 511.514 12.2537C540.92 -17.626 560.565 -55.8224 571.346 -96.2771" stroke="url(#paint7_linear_2114_1015)" stroke-width="0.8669" stroke-miterlimit="10"/>
<path opacity="0.54" d="M-81.1979 472.82C-97.1393 452.107 -89.1747 420.321 -70.4043 402.425C-68.7288 400.823 -66.9804 399.317 -65.1835 397.897C-46.8259 383.388 -22.9077 377.584 0.415707 374.063C4.90797 373.383 9.42453 372.776 13.9411 372.181C35.164 369.389 56.654 366.754 76.4079 358.365C82.8063 355.657 88.8405 352.415 94.5469 348.688C133.095 323.41 154.513 276.496 169.75 232.047C170.855 228.817 171.96 225.576 173.052 222.322C189.309 174.255 207.946 126.722 241.772 94.4136C253.318 83.3894 265.192 72.353 281.522 66.5737C300.924 59.6775 323.215 60.6974 343.406 63.3077C357.175 65.0803 370.53 67.5207 383.982 68.6499C390.308 69.1719 396.658 69.4026 403.093 69.1841C444.07 67.7757 485.556 46.7713 515.557 16.0904C545.595 -14.6392 565.276 -54.0618 576.069 -95.585" stroke="url(#paint8_linear_2114_1015)" stroke-width="0.8669" stroke-miterlimit="10"/>
<path opacity="0.54" d="M-78.2961 479.304C-94.2497 458.615 -86.4915 426.914 -67.9518 408.836C-66.2884 407.221 -64.5643 405.691 -62.7917 404.259C-44.6163 389.58 -20.8315 383.497 2.419 379.709C6.89912 378.981 11.4035 378.325 15.9079 377.681C37.058 374.658 58.4873 371.829 78.1805 363.343C84.5546 360.599 90.5767 357.345 96.2588 353.593C134.722 328.169 155.957 281.268 170.843 236.734C171.923 233.504 172.992 230.25 174.06 226.996C189.868 178.868 207.861 131.372 240.303 98.1775C251.691 86.5219 263.359 74.6477 279.993 68.4678C299.759 61.0859 322.706 62.385 343.309 65.5418C357.357 67.6908 370.931 70.5925 384.662 72.1466C391.109 72.8751 397.605 73.2879 404.198 73.2272C446.158 72.8387 489.017 51.4579 519.649 19.9149C550.318 -11.6645 570.047 -52.3013 580.841 -94.905" stroke="url(#paint9_linear_2114_1015)" stroke-width="0.8669" stroke-miterlimit="10"/>
<path opacity="0.54" d="M-75.3943 485.787C-91.3479 465.135 -83.8203 433.495 -65.4992 415.259C-63.8601 413.632 -62.1603 412.09 -60.3877 410.633C-42.3822 395.772 -18.7432 389.41 4.43449 385.355C8.89034 384.578 13.3826 383.874 17.8749 383.181C38.9521 379.94 60.3329 376.892 79.9531 368.321C86.303 365.552 92.3008 362.274 97.9708 358.498C136.349 332.929 157.402 286.039 171.923 241.42C172.979 238.178 174.024 234.925 175.056 231.671C190.414 183.482 207.74 135.973 238.822 101.929C250.052 89.63 261.514 76.9424 278.451 70.3619C298.581 62.4943 322.183 64.0848 343.188 67.7879C357.515 70.3012 371.307 73.6764 385.306 75.6555C391.886 76.5782 398.503 77.1853 405.254 77.2824C448.198 77.9016 492.428 56.1444 523.692 23.7394C554.992 -8.70204 574.758 -50.5408 585.564 -94.2251" stroke="url(#paint10_linear_2114_1015)" stroke-width="0.8669" stroke-miterlimit="10"/>
<path opacity="0.54" d="M-72.5049 492.271C-88.4706 471.643 -81.1616 440.087 -63.0468 421.669C-61.432 420.018 -59.7444 418.464 -57.9961 416.995C-40.1727 401.952 -16.6672 395.323 6.42549 391C10.8692 390.175 15.3493 389.41 19.8173 388.669C40.8217 385.197 62.1539 381.955 81.7135 373.286C88.0391 370.482 94.0247 367.191 99.6825 363.391C137.976 337.664 158.835 290.786 173.004 246.094C174.036 242.853 175.043 239.587 176.051 236.321C190.961 188.071 207.582 140.526 237.34 105.669C248.401 92.7138 259.668 79.2127 276.896 72.2315C297.391 63.8905 321.649 65.7602 343.054 69.9975C357.648 72.875 371.671 76.7238 385.937 79.1277C392.639 80.2569 399.402 81.0461 406.31 81.301C450.237 82.928 495.84 60.7944 527.735 27.5395C559.666 -5.75182 579.469 -48.8047 590.287 -93.5696" stroke="url(#paint11_linear_2114_1015)" stroke-width="0.8669" stroke-miterlimit="10"/>
<path opacity="0.54" d="M-69.603 498.766C-85.5688 478.175 -78.4783 446.692 -60.5942 428.092C-58.9915 426.428 -57.3282 424.85 -55.592 423.357C-37.9507 408.132 -14.5788 401.223 8.44103 396.634C12.8726 395.748 17.3284 394.946 21.7843 394.157C42.7158 390.454 63.9873 387.018 83.4862 378.252C89.7875 375.423 95.761 372.096 101.395 368.284C139.603 342.411 160.28 295.546 174.084 250.769C175.092 247.515 176.075 244.249 177.047 240.983C191.507 192.661 207.388 145.043 235.859 109.408C246.75 95.7855 257.835 81.4952 275.355 74.1134C296.213 65.2867 321.127 67.4478 342.945 72.2193C357.818 75.461 372.072 79.7955 386.605 82.6122C393.44 83.9356 400.337 84.9191 407.391 85.3319C452.301 87.9787 499.276 65.4688 531.802 31.3518C564.365 -2.80154 584.204 -47.0564 595.022 -92.9018" stroke="url(#paint12_linear_2114_1015)" stroke-width="0.8669" stroke-miterlimit="10"/>
<path opacity="0.54" d="M-66.7012 505.25C-82.679 484.682 -75.8071 453.285 -58.1294 434.502C-56.5511 432.827 -54.8998 431.237 -53.1879 429.719C-35.7167 414.324 -12.4904 407.136 10.4566 402.28C14.876 401.345 19.3075 400.483 23.7512 399.657C44.6099 395.723 65.8328 392.081 85.2589 383.23C91.5359 380.377 97.4851 377.026 103.107 373.189C141.218 347.17 161.725 300.305 175.165 255.455C176.136 252.201 177.095 248.923 178.042 245.657C192.053 197.274 207.169 149.559 234.39 113.172C245.086 98.8695 256.001 83.79 273.825 76.0075C295.048 66.6951 320.617 69.1477 342.836 74.4655C357.976 78.0836 372.46 82.8794 387.261 86.1212C394.218 87.6388 401.247 88.8044 408.459 89.3872C454.353 93.0417 502.7 70.1554 535.857 35.1886C569.052 0.185299 588.927 -45.2837 599.757 -92.2097" stroke="url(#paint13_linear_2114_1015)" stroke-width="0.8669" stroke-miterlimit="10"/>
<path opacity="0.54" d="M-63.8117 511.733C-79.7896 491.202 -73.1484 459.878 -55.6892 440.925C-54.1352 439.238 -52.4961 437.623 -50.8085 436.093C-33.5193 420.516 -10.4266 413.049 12.4475 407.925C16.8426 406.942 21.2742 406.031 25.7058 405.145C46.5037 400.993 67.666 397.144 87.0191 388.196C93.2719 385.306 99.209 381.943 104.818 378.094C142.845 351.93 163.169 305.077 176.257 260.142C177.204 256.876 178.139 253.598 179.05 250.332C192.612 201.888 206.938 154.039 232.921 116.924C243.423 101.929 254.168 86.0847 272.283 77.9015C293.87 68.1156 320.083 70.8474 342.714 76.6995C358.133 80.6819 372.837 85.9512 387.916 89.6179C394.994 91.3419 402.17 92.6896 409.54 93.4302C456.417 98.0924 506.135 74.8419 539.925 39.0131C573.75 3.14777 593.662 -43.5232 604.504 -91.5298" stroke="url(#paint14_linear_2114_1015)" stroke-width="0.8669" stroke-miterlimit="10"/>
<path opacity="0.54" d="M-60.9098 518.216C-76.8998 497.71 -70.465 466.47 -53.2365 447.336C-51.6946 445.624 -50.0798 443.997 -48.4043 442.455C-31.2851 426.696 -8.33812 418.962 14.451 413.559C18.834 412.527 23.2413 411.568 27.6607 410.633C48.3858 406.25 69.4874 402.207 88.7798 393.161C95.0083 390.247 100.921 386.86 106.518 382.987C144.46 356.665 164.602 309.824 177.326 264.816C178.249 261.55 179.147 258.272 180.034 254.982C193.146 206.477 206.635 158.471 231.428 120.663C241.711 104.976 252.31 88.355 270.729 79.7712C292.68 69.4997 319.549 72.5228 342.581 78.9091C358.267 83.2557 373.201 88.9985 388.548 93.0901C395.759 95.0085 403.056 96.5504 410.584 97.4488C458.445 103.131 509.535 79.4919 543.956 42.8132C578.413 6.098 598.361 -41.7871 609.215 -90.8743" stroke="url(#paint15_linear_2114_1015)" stroke-width="0.8669" stroke-miterlimit="10"/>
<path opacity="0.54" d="M-58.0082 524.712C-73.9983 504.242 -67.7941 473.063 -50.772 453.758C-49.2544 452.034 -47.6639 450.395 -46.0005 448.829C-29.0634 432.888 -6.25001 424.887 16.4663 419.217C20.8371 418.124 25.2323 417.116 29.6274 416.133C50.2797 411.519 71.3326 407.27 90.5523 398.139C96.7565 395.189 102.657 391.79 108.23 387.892C146.086 361.424 166.047 314.595 178.406 269.503C179.305 266.225 180.179 262.946 181.029 259.656C193.692 211.091 206.331 162.927 229.946 124.415C239.999 108.024 250.477 90.6498 269.187 81.6652C291.502 70.9081 319.027 74.2227 342.471 81.1432C358.437 85.854 373.589 92.0824 389.203 96.5868C396.536 98.7116 403.979 100.436 411.652 101.492C460.497 108.182 512.959 84.1785 548.011 46.6377C583.099 9.06049 603.084 -40.0266 613.95 -90.1943" stroke="url(#paint16_linear_2114_1015)" stroke-width="0.8669" stroke-miterlimit="10"/>
<path opacity="0.54" d="M-55.1063 531.196C-71.0963 510.75 -65.1228 479.656 -48.3193 460.181C-46.8138 458.445 -45.2475 456.782 -43.5963 455.203C-26.8414 439.092 -4.16152 430.8 18.4819 424.862C22.8407 423.721 27.2115 422.665 31.5945 421.633C52.1739 416.789 73.1783 412.345 92.3251 403.117C98.505 400.143 104.394 396.719 109.954 392.797C147.726 366.184 167.504 319.367 179.499 274.189C180.374 270.911 181.211 267.621 182.037 264.331C194.251 215.705 205.992 167.371 228.477 128.179C238.287 111.072 248.644 92.9446 267.645 83.5716C290.325 72.3409 318.505 75.9347 342.35 83.4016C358.583 88.4766 373.966 95.1786 389.859 100.108C397.326 102.427 404.902 104.345 412.733 105.559C462.561 113.269 516.395 88.8773 552.078 50.4866C587.798 12.0595 607.819 -38.2417 618.685 -89.49" stroke="url(#paint17_linear_2114_1015)" stroke-width="0.8669" stroke-miterlimit="10"/>
<path opacity="0.54" d="M-52.2168 537.679C-68.219 517.27 -62.4519 486.249 -45.8669 466.592C-44.3857 464.831 -42.8316 463.156 -41.2047 461.565C-24.6197 445.272 -2.08553 436.712 20.4851 430.508C24.8195 429.318 29.1904 428.201 33.5491 427.133C54.0557 422.058 74.9993 417.42 94.0975 408.095C100.253 405.096 106.117 401.636 111.666 397.702C149.34 370.931 168.948 324.126 180.58 278.876C181.43 275.586 182.243 272.295 183.032 269.005C194.797 220.319 205.627 171.79 226.996 131.93C236.551 114.107 246.798 95.2393 266.103 85.4534C289.147 73.7371 317.982 77.6102 342.229 85.6234C358.741 91.0748 374.354 98.2382 390.502 103.605C398.09 106.118 405.8 108.23 413.789 109.602C464.612 118.32 519.807 93.5638 556.121 54.2989C592.472 15.022 612.529 -36.4934 623.408 -88.8223" stroke="url(#paint18_linear_2114_1015)" stroke-width="0.8669" stroke-miterlimit="10"/>
<path opacity="0.54" d="M-49.3148 544.162C-65.317 523.777 -59.7806 492.841 -43.4142 473.002C-41.9572 471.23 -40.4153 469.542 -38.8126 467.927C-22.4098 451.452 -0.00917654 442.613 22.4886 436.141C26.8109 434.903 31.1574 433.737 35.5162 432.608C55.9499 427.315 76.845 422.458 95.8704 413.037C102.002 410.001 107.854 406.529 113.378 402.583C150.967 375.666 170.381 328.873 181.673 283.538C182.486 280.248 183.287 276.945 184.052 273.643C195.368 224.896 205.251 176.185 225.539 135.657C234.815 117.118 244.977 97.4974 264.585 87.3231C287.994 75.1211 317.485 79.2855 342.132 87.833C358.923 93.6486 374.755 101.285 391.17 107.077C398.892 109.797 406.735 112.091 414.882 113.621C466.689 123.346 523.255 98.2138 560.201 58.099C597.183 17.96 617.289 -34.7573 628.168 -88.1667" stroke="url(#paint19_linear_2114_1015)" stroke-width="0.8669" stroke-miterlimit="10"/>
<path opacity="0.54" d="M-46.4133 550.658C-62.4276 530.309 -57.1098 499.446 -40.9619 479.425C-39.5171 477.64 -37.9994 475.929 -36.4089 474.302C-20.1761 457.656 2.07888 448.538 24.4916 441.787C28.8018 440.488 33.1362 439.286 37.4707 438.108C57.8316 432.584 78.6781 427.533 97.6306 418.015C103.738 414.955 109.565 411.458 115.078 407.488C152.582 380.425 171.814 333.633 182.741 288.225C183.53 284.922 184.295 281.62 185.036 278.317C195.89 229.509 204.814 180.617 224.045 139.421C233.042 120.165 243.132 99.8044 263.019 89.2172C286.792 76.5417 316.938 80.9854 341.998 90.0792C359.056 96.2591 375.119 104.369 391.813 110.586C399.657 113.5 407.646 115.989 415.938 117.676C468.728 128.421 526.666 102.913 564.244 61.9358C601.857 20.9469 622 -32.9968 632.89 -87.4746" stroke="url(#paint20_linear_2114_1015)" stroke-width="0.8669" stroke-miterlimit="10"/>
<path opacity="0.54" d="M-43.5113 557.141C-59.5257 536.817 -54.4263 506.027 -38.497 485.848C-37.0765 484.051 -35.571 482.315 -34.0047 480.676C-17.954 463.848 4.16739 454.451 26.5073 447.445C30.8053 446.097 35.1155 444.835 39.4378 443.608C59.738 437.854 80.5117 432.609 99.4035 422.993C105.486 419.897 111.302 416.388 116.802 412.393C154.221 385.173 173.271 338.404 183.834 292.911C184.599 289.609 185.339 286.294 186.044 282.992C196.449 234.111 204.377 185.036 222.577 143.173C231.27 123.188 241.298 102.087 261.489 91.1112C285.626 77.9501 316.429 82.6852 341.889 92.3132C359.226 98.8574 375.508 107.453 392.469 114.083C400.434 117.191 408.556 119.874 417.007 121.719C470.78 133.472 530.078 107.587 568.299 65.7603C606.544 23.9094 626.723 -31.2363 637.626 -86.7947" stroke="url(#paint21_linear_2114_1015)" stroke-width="0.8669" stroke-miterlimit="10"/>
<path opacity="0.54" d="M-40.6218 563.625C-56.6483 543.337 -51.7675 512.619 -36.0567 492.259C-34.6483 490.437 -33.167 488.701 -31.6251 487.038C-15.7565 470.028 6.23135 460.363 28.4984 453.079C32.7721 451.682 37.0823 450.371 41.3803 449.096C61.6076 443.111 82.3328 437.671 101.152 427.958C107.21 424.838 113.014 421.305 118.489 417.286C155.824 389.92 174.691 343.152 184.89 297.585C185.631 294.271 186.335 290.956 187.015 287.654C196.971 238.713 203.867 189.455 221.071 146.925C229.448 126.224 239.429 104.382 259.923 92.9931C284.436 79.3463 315.882 84.3728 341.743 94.535C359.348 101.456 375.86 110.513 393.101 117.567C401.199 120.882 409.455 123.747 418.063 125.75C472.82 138.511 533.49 112.261 572.342 69.5726C611.218 26.8718 631.434 -29.488 642.336 -86.1269" stroke="url(#paint22_linear_2114_1015)" stroke-width="0.8669" stroke-miterlimit="10"/>
<path opacity="0.54" d="M-37.7201 570.108C-53.7466 549.844 -49.0965 519.212 -33.5921 498.669C-32.208 496.836 -30.751 495.075 -29.2091 493.4C-13.5104 476.208 8.3317 466.264 30.5259 458.724C34.7875 457.279 39.0734 455.907 43.3592 454.596C63.5137 448.392 84.1903 442.734 102.936 432.936C108.971 429.78 114.75 426.234 120.213 422.191C157.451 394.679 176.148 347.923 185.983 302.272C186.699 298.957 187.379 295.631 188.022 292.316C197.529 243.314 203.393 193.887 219.602 150.664C227.639 129.235 237.595 106.652 258.381 94.8749C283.258 80.7547 315.36 86.0604 341.634 96.7568C359.518 104.042 376.248 113.572 393.756 121.052C401.976 124.56 410.365 127.608 419.131 129.781C474.872 143.561 536.914 116.923 576.397 73.3849C615.893 29.822 636.156 -27.7397 647.071 -85.4592" stroke="url(#paint23_linear_2114_1015)" stroke-width="0.8669" stroke-miterlimit="10"/>
<path opacity="0.54" d="M-34.8183 576.604C-50.8569 556.377 -46.4132 525.817 -31.1395 505.104C-29.7797 503.259 -28.3349 501.474 -26.8172 499.786C-11.3007 482.424 10.4079 472.201 32.5171 464.382C36.7665 462.889 41.0403 461.468 45.314 460.096C65.3957 453.661 86.0115 447.809 104.697 437.914C110.707 434.733 116.474 431.164 121.925 427.096C159.078 399.426 177.593 352.695 187.063 306.959C187.755 303.632 188.399 300.305 189.018 296.991C198.075 247.928 202.871 198.331 218.133 154.428C225.83 132.282 235.774 108.947 256.851 96.7691C282.093 82.1631 314.85 87.7603 341.524 99.0031C359.676 106.652 376.637 116.656 394.412 124.56C402.765 128.276 411.288 131.505 420.212 133.836C476.936 148.624 540.35 121.622 580.464 77.2216C620.591 32.8089 640.892 -25.9669 651.819 -84.7671" stroke="url(#paint24_linear_2114_1015)" stroke-width="0.8669" stroke-miterlimit="10"/>
<path opacity="0.54" d="M-31.9166 583.087C-47.9552 562.884 -43.7422 532.41 -28.6749 511.514C-27.3272 509.645 -25.9067 507.86 -24.4012 506.136C-9.05461 488.592 12.5083 478.09 34.5447 470.003C38.7698 468.449 43.0314 466.992 47.293 465.572C67.3018 458.906 87.8691 452.86 106.494 442.868C112.479 439.662 118.222 436.057 123.662 431.989C160.729 404.174 179.062 357.442 188.18 311.633C188.848 308.306 189.467 304.979 190.05 301.653C198.658 252.529 202.373 202.774 216.688 158.167C224.021 135.293 233.965 111.229 255.346 98.6509C280.952 83.5593 314.364 89.4478 341.439 101.225C359.87 109.238 377.062 119.728 395.104 128.045C403.578 131.954 412.247 135.378 421.317 137.867C479.024 153.675 543.81 126.284 584.568 81.0218C625.326 35.7591 645.663 -24.2309 656.602 -84.1116" stroke="url(#paint25_linear_2114_1015)" stroke-width="0.8669" stroke-miterlimit="10"/>
<path opacity="0.54" d="M-29.027 589.571C-45.0777 569.404 -41.0711 538.99 -26.2345 517.925C-24.9111 516.043 -23.5027 514.234 -22.0215 512.498C-6.85704 494.772 14.5723 484.003 36.5358 475.649C40.7488 474.047 44.9983 472.529 49.2356 471.072C69.1715 464.176 89.6903 457.923 108.242 447.846C114.203 444.604 119.934 440.986 125.349 436.894C162.331 408.933 180.483 362.214 189.236 316.32C189.868 312.981 190.463 309.654 191.021 306.315C199.18 257.131 201.803 207.23 215.182 161.919C222.151 138.329 232.095 113.512 253.767 100.533C279.737 84.9678 313.806 91.1356 341.281 103.447C359.979 111.824 377.402 122.788 395.711 131.53C404.307 135.633 413.109 139.251 422.337 141.898C481.027 158.714 547.185 130.947 588.575 84.8343C629.964 38.7097 650.337 -22.4823 661.289 -83.4436" stroke="url(#paint26_linear_2114_1015)" stroke-width="0.8669" stroke-miterlimit="10"/>
<path opacity="0.54" d="M-26.1251 596.054C-42.1758 575.912 -38.3999 545.583 -23.7818 524.336C-22.4706 522.442 -21.0865 520.608 -19.6295 518.86C-4.63505 500.964 16.6486 489.915 38.5393 481.283C42.7402 479.632 46.9653 478.065 51.1905 476.548C71.0536 469.421 91.5116 462.974 110.003 452.799C115.94 449.533 121.658 445.891 127.061 441.775C163.959 413.668 181.915 366.949 190.317 320.982C190.924 317.643 191.495 314.304 192.017 310.965C199.727 261.72 201.232 211.686 213.701 165.647C220.282 141.34 230.262 115.782 252.225 102.403C278.56 86.3519 313.284 92.7989 341.172 105.669C360.149 114.423 377.79 125.847 396.379 135.014C405.108 139.324 414.044 143.124 423.429 145.929C483.104 163.752 550.633 135.621 592.654 88.6466C634.675 41.6721 655.085 -20.734 666.048 -82.7759" stroke="url(#paint27_linear_2114_1015)" stroke-width="0.8669" stroke-miterlimit="10"/>
<path opacity="0.54" d="M-23.2234 602.55C-39.2863 582.444 -35.7289 552.188 -21.3172 530.771C-20.0302 528.864 -18.6583 527.019 -17.2135 525.246C-2.40112 507.168 18.749 495.84 40.5668 486.953C44.7555 485.253 48.9686 483.626 53.1694 482.072C72.9718 474.726 93.3692 468.073 111.787 457.802C117.7 454.499 123.394 450.845 128.785 446.704C165.585 418.44 183.372 371.744 191.41 325.692C191.993 322.341 192.527 319.003 193.025 315.664C200.285 266.358 200.661 216.203 212.232 169.434C218.424 144.411 228.429 118.101 250.696 104.321C277.394 87.7845 312.774 94.5229 341.063 107.927C360.319 117.045 378.179 128.943 397.034 138.535C405.885 143.039 414.967 147.034 424.498 149.996C485.155 168.84 554.057 140.32 596.709 92.4953C639.362 44.6587 659.808 -18.9493 670.771 -82.0718" stroke="url(#paint28_linear_2114_1015)" stroke-width="0.8669" stroke-miterlimit="10"/>
<path opacity="0.54" d="M-20.3338 609.033C-36.3967 588.951 -33.0579 558.78 -18.8769 537.181C-17.6142 535.251 -16.2544 533.393 -14.8338 531.608C-0.203618 513.348 20.8129 501.753 42.5458 492.586C46.7102 490.826 50.9111 489.162 55.112 487.548C74.8415 479.971 95.1903 473.112 113.536 462.755C119.424 459.428 125.106 455.75 130.473 451.585C167.188 423.175 184.793 376.479 192.466 330.355C193.025 327.004 193.534 323.653 193.996 320.314C200.807 270.948 200.042 220.683 210.727 173.162C216.506 147.434 226.559 120.372 249.117 106.191C276.18 89.1807 312.215 96.1983 340.905 110.137C360.428 119.619 378.519 131.991 397.641 142.019C406.626 146.718 415.829 150.907 425.518 154.027C487.159 173.878 557.432 144.994 600.716 96.3076C644 47.6211 664.482 -17.201 675.458 -81.404" stroke="url(#paint29_linear_2114_1015)" stroke-width="0.8669" stroke-miterlimit="10"/>
<path opacity="0.54" d="M-17.432 615.517C-33.4949 595.471 -30.3868 565.373 -16.4122 543.592C-15.1616 541.649 -13.8382 539.767 -12.4177 537.97C2.04254 519.528 22.9134 507.654 44.5734 498.232C48.7257 496.423 52.9144 494.711 57.091 493.048C76.7477 485.241 97.0358 478.187 115.321 467.733C121.197 464.382 126.843 460.679 132.209 456.502C168.839 427.946 186.262 381.263 193.583 335.053C194.117 331.69 194.591 328.339 195.028 324.988C201.39 275.549 199.484 225.199 209.282 176.926C214.648 150.494 224.75 122.666 247.612 108.085C275.039 90.5891 311.73 97.8981 340.82 112.37C360.623 122.217 378.932 135.075 398.333 145.516C407.439 150.421 416.788 154.792 426.635 158.07C489.259 178.929 560.905 149.668 604.82 100.132C648.735 50.5836 669.266 -15.4405 680.241 -80.7241" stroke="url(#paint30_linear_2114_1015)" stroke-width="0.8669" stroke-miterlimit="10"/>
<path opacity="0.54" d="M-14.5304 622C-32.0381 600.194 -27.048 566.527 -10.026 544.332C6.99609 522.15 33.1726 509.147 59.0457 498.536C84.9187 487.924 111.933 478.66 133.921 461.395C173.113 430.605 190.111 379.138 196.011 329.651C201.924 280.151 198.852 229.716 207.788 180.677C212.73 153.542 222.904 124.961 246.058 109.979C273.849 91.9976 311.195 99.598 340.699 114.617C370.202 129.635 396.391 151.356 427.691 162.125C491.299 184.004 564.316 154.367 608.863 103.969C653.409 53.5705 673.976 -13.6678 684.964 -80.032" stroke="url(#paint31_linear_2114_1015)" stroke-width="0.8669" stroke-miterlimit="10"/>
</g>
<defs>
<linearGradient id="paint0_linear_2114_1015" x1="521.651" y1="-120.093" x2="-97.6063" y2="429.356" gradientUnits="userSpaceOnUse">
<stop stop-color="#7ED4EF"/>
<stop offset="0.2294" stop-color="#66BFE6"/>
<stop offset="0.711" stop-color="#298BD0"/>
<stop offset="1" stop-color="#0169C2"/>
</linearGradient>
<linearGradient id="paint1_linear_2114_1015" x1="527.963" y1="-117.645" x2="-95.2094" y2="435.277" gradientUnits="userSpaceOnUse">
<stop stop-color="#7ED4EF"/>
<stop offset="0.2294" stop-color="#66BFE6"/>
<stop offset="0.711" stop-color="#298BD0"/>
<stop offset="1" stop-color="#0169C2"/>
</linearGradient>
<linearGradient id="paint2_linear_2114_1015" x1="534.272" y1="-115.198" x2="-92.8142" y2="441.197" gradientUnits="userSpaceOnUse">
<stop stop-color="#7ED4EF"/>
<stop offset="0.2294" stop-color="#66BFE6"/>
<stop offset="0.711" stop-color="#298BD0"/>
<stop offset="1" stop-color="#0169C2"/>
</linearGradient>
<linearGradient id="paint3_linear_2114_1015" x1="540.085" y1="-113.311" x2="-90.9147" y2="446.557" gradientUnits="userSpaceOnUse">
<stop stop-color="#7ED4EF"/>
<stop offset="0.2294" stop-color="#66BFE6"/>
<stop offset="0.711" stop-color="#298BD0"/>
<stop offset="1" stop-color="#0169C2"/>
</linearGradient>
<linearGradient id="paint4_linear_2114_1015" x1="545.05" y1="-112.379" x2="-89.864" y2="450.961" gradientUnits="userSpaceOnUse">
<stop stop-color="#7ED4EF"/>
<stop offset="0.2294" stop-color="#66BFE6"/>
<stop offset="0.711" stop-color="#298BD0"/>
<stop offset="1" stop-color="#0169C2"/>
</linearGradient>
<linearGradient id="paint5_linear_2114_1015" x1="549.964" y1="-111.504" x2="-88.8633" y2="455.308" gradientUnits="userSpaceOnUse">
<stop stop-color="#7ED4EF"/>
<stop offset="0.2294" stop-color="#66BFE6"/>
<stop offset="0.711" stop-color="#298BD0"/>
<stop offset="1" stop-color="#0169C2"/>
</linearGradient>
<linearGradient id="paint6_linear_2114_1015" x1="554.824" y1="-110.69" x2="-87.9166" y2="459.595" gradientUnits="userSpaceOnUse">
<stop stop-color="#7ED4EF"/>
<stop offset="0.2294" stop-color="#66BFE6"/>
<stop offset="0.711" stop-color="#298BD0"/>
<stop offset="1" stop-color="#0169C2"/>
</linearGradient>
<linearGradient id="paint7_linear_2114_1015" x1="559.626" y1="-109.94" x2="-87.0279" y2="463.817" gradientUnits="userSpaceOnUse">
<stop stop-color="#7ED4EF"/>
<stop offset="0.2294" stop-color="#66BFE6"/>
<stop offset="0.711" stop-color="#298BD0"/>
<stop offset="1" stop-color="#0169C2"/>
</linearGradient>
<linearGradient id="paint8_linear_2114_1015" x1="564.303" y1="-109.331" x2="-86.2638" y2="467.897" gradientUnits="userSpaceOnUse">
<stop stop-color="#7ED4EF"/>
<stop offset="0.2294" stop-color="#66BFE6"/>
<stop offset="0.711" stop-color="#298BD0"/>
<stop offset="1" stop-color="#0169C2"/>
</linearGradient>
<linearGradient id="paint9_linear_2114_1015" x1="568.878" y1="-108.837" x2="-85.6016" y2="471.864" gradientUnits="userSpaceOnUse">
<stop stop-color="#7ED4EF"/>
<stop offset="0.2294" stop-color="#66BFE6"/>
<stop offset="0.711" stop-color="#298BD0"/>
<stop offset="1" stop-color="#0169C2"/>
</linearGradient>
<linearGradient id="paint10_linear_2114_1015" x1="573.392" y1="-108.413" x2="-85.0011" y2="475.76" gradientUnits="userSpaceOnUse">
<stop stop-color="#7ED4EF"/>
<stop offset="0.2294" stop-color="#66BFE6"/>
<stop offset="0.711" stop-color="#298BD0"/>
<stop offset="1" stop-color="#0169C2"/>
</linearGradient>
<linearGradient id="paint11_linear_2114_1015" x1="577.862" y1="-108.036" x2="-84.4439" y2="479.608" gradientUnits="userSpaceOnUse">
<stop stop-color="#7ED4EF"/>
<stop offset="0.2294" stop-color="#66BFE6"/>
<stop offset="0.711" stop-color="#298BD0"/>
<stop offset="1" stop-color="#0169C2"/>
</linearGradient>
<linearGradient id="paint12_linear_2114_1015" x1="582.301" y1="-107.695" x2="-83.9173" y2="483.421" gradientUnits="userSpaceOnUse">
<stop stop-color="#7ED4EF"/>
<stop offset="0.2294" stop-color="#66BFE6"/>
<stop offset="0.711" stop-color="#298BD0"/>
<stop offset="1" stop-color="#0169C2"/>
</linearGradient>
<linearGradient id="paint13_linear_2114_1015" x1="586.717" y1="-107.38" x2="-83.4141" y2="487.208" gradientUnits="userSpaceOnUse">
<stop stop-color="#7ED4EF"/>
<stop offset="0.2294" stop-color="#66BFE6"/>
<stop offset="0.711" stop-color="#298BD0"/>
<stop offset="1" stop-color="#0169C2"/>
</linearGradient>
<linearGradient id="paint14_linear_2114_1015" x1="591.115" y1="-107.084" x2="-82.929" y2="490.975" gradientUnits="userSpaceOnUse">
<stop stop-color="#7ED4EF"/>
<stop offset="0.2294" stop-color="#66BFE6"/>
<stop offset="0.711" stop-color="#298BD0"/>
<stop offset="1" stop-color="#0169C2"/>
</linearGradient>
<linearGradient id="paint15_linear_2114_1015" x1="595.498" y1="-106.805" x2="-82.4576" y2="494.725" gradientUnits="userSpaceOnUse">
<stop stop-color="#7ED4EF"/>
<stop offset="0.2294" stop-color="#66BFE6"/>
<stop offset="0.711" stop-color="#298BD0"/>
<stop offset="1" stop-color="#0169C2"/>
</linearGradient>
<linearGradient id="paint16_linear_2114_1015" x1="599.871" y1="-106.539" x2="-81.9979" y2="498.463" gradientUnits="userSpaceOnUse">
<stop stop-color="#7ED4EF"/>
<stop offset="0.2294" stop-color="#66BFE6"/>
<stop offset="0.711" stop-color="#298BD0"/>
<stop offset="1" stop-color="#0169C2"/>
</linearGradient>
<linearGradient id="paint17_linear_2114_1015" x1="604.234" y1="-106.282" x2="-81.5471" y2="502.191" gradientUnits="userSpaceOnUse">
<stop stop-color="#7ED4EF"/>
<stop offset="0.2294" stop-color="#66BFE6"/>
<stop offset="0.711" stop-color="#298BD0"/>
<stop offset="1" stop-color="#0169C2"/>
</linearGradient>
<linearGradient id="paint18_linear_2114_1015" x1="608.589" y1="-106.035" x2="-81.1042" y2="505.91" gradientUnits="userSpaceOnUse">
<stop stop-color="#7ED4EF"/>
<stop offset="0.2294" stop-color="#66BFE6"/>
<stop offset="0.711" stop-color="#298BD0"/>
<stop offset="1" stop-color="#0169C2"/>
</linearGradient>
<linearGradient id="paint19_linear_2114_1015" x1="612.939" y1="-105.794" x2="-80.6672" y2="509.622" gradientUnits="userSpaceOnUse">
<stop stop-color="#7ED4EF"/>
<stop offset="0.2294" stop-color="#66BFE6"/>
<stop offset="0.711" stop-color="#298BD0"/>
<stop offset="1" stop-color="#0169C2"/>
</linearGradient>
<linearGradient id="paint20_linear_2114_1015" x1="617.282" y1="-105.559" x2="-80.2359" y2="513.328" gradientUnits="userSpaceOnUse">
<stop stop-color="#7ED4EF"/>
<stop offset="0.2294" stop-color="#66BFE6"/>
<stop offset="0.711" stop-color="#298BD0"/>
<stop offset="1" stop-color="#0169C2"/>
</linearGradient>
<linearGradient id="paint21_linear_2114_1015" x1="621.622" y1="-105.329" x2="-79.8086" y2="517.029" gradientUnits="userSpaceOnUse">
<stop stop-color="#7ED4EF"/>
<stop offset="0.2294" stop-color="#66BFE6"/>
<stop offset="0.711" stop-color="#298BD0"/>
<stop offset="1" stop-color="#0169C2"/>
</linearGradient>
<linearGradient id="paint22_linear_2114_1015" x1="625.957" y1="-105.104" x2="-79.3855" y2="520.726" gradientUnits="userSpaceOnUse">
<stop stop-color="#7ED4EF"/>
<stop offset="0.2294" stop-color="#66BFE6"/>
<stop offset="0.711" stop-color="#298BD0"/>
<stop offset="1" stop-color="#0169C2"/>
</linearGradient>
<linearGradient id="paint23_linear_2114_1015" x1="630.289" y1="-104.882" x2="-78.9658" y2="524.419" gradientUnits="userSpaceOnUse">
<stop stop-color="#7ED4EF"/>
<stop offset="0.2294" stop-color="#66BFE6"/>
<stop offset="0.711" stop-color="#298BD0"/>
<stop offset="1" stop-color="#0169C2"/>
</linearGradient>
<linearGradient id="paint24_linear_2114_1015" x1="634.618" y1="-104.663" x2="-78.5487" y2="528.109" gradientUnits="userSpaceOnUse">
<stop stop-color="#7ED4EF"/>
<stop offset="0.2294" stop-color="#66BFE6"/>
<stop offset="0.711" stop-color="#298BD0"/>
<stop offset="1" stop-color="#0169C2"/>
</linearGradient>
<linearGradient id="paint25_linear_2114_1015" x1="638.944" y1="-104.447" x2="-78.1343" y2="531.795" gradientUnits="userSpaceOnUse">
<stop stop-color="#7ED4EF"/>
<stop offset="0.2294" stop-color="#66BFE6"/>
<stop offset="0.711" stop-color="#298BD0"/>
<stop offset="1" stop-color="#0169C2"/>
</linearGradient>
<linearGradient id="paint26_linear_2114_1015" x1="643.268" y1="-104.234" x2="-77.7221" y2="535.48" gradientUnits="userSpaceOnUse">
<stop stop-color="#7ED4EF"/>
<stop offset="0.2294" stop-color="#66BFE6"/>
<stop offset="0.711" stop-color="#298BD0"/>
<stop offset="1" stop-color="#0169C2"/>
</linearGradient>
<linearGradient id="paint27_linear_2114_1015" x1="647.591" y1="-104.023" x2="-77.3118" y2="539.162" gradientUnits="userSpaceOnUse">
<stop stop-color="#7ED4EF"/>
<stop offset="0.2294" stop-color="#66BFE6"/>
<stop offset="0.711" stop-color="#298BD0"/>
<stop offset="1" stop-color="#0169C2"/>
</linearGradient>
<linearGradient id="paint28_linear_2114_1015" x1="651.911" y1="-103.814" x2="-76.9034" y2="542.842" gradientUnits="userSpaceOnUse">
<stop stop-color="#7ED4EF"/>
<stop offset="0.2294" stop-color="#66BFE6"/>
<stop offset="0.711" stop-color="#298BD0"/>
<stop offset="1" stop-color="#0169C2"/>
</linearGradient>
<linearGradient id="paint29_linear_2114_1015" x1="656.23" y1="-103.607" x2="-76.4967" y2="546.52" gradientUnits="userSpaceOnUse">
<stop stop-color="#7ED4EF"/>
<stop offset="0.2294" stop-color="#66BFE6"/>
<stop offset="0.711" stop-color="#298BD0"/>
<stop offset="1" stop-color="#0169C2"/>
</linearGradient>
<linearGradient id="paint30_linear_2114_1015" x1="660.547" y1="-103.401" x2="-76.0911" y2="550.197" gradientUnits="userSpaceOnUse">
<stop stop-color="#7ED4EF"/>
<stop offset="0.2294" stop-color="#66BFE6"/>
<stop offset="0.711" stop-color="#298BD0"/>
<stop offset="1" stop-color="#0169C2"/>
</linearGradient>
<linearGradient id="paint31_linear_2114_1015" x1="664.863" y1="-103.196" x2="-75.687" y2="553.872" gradientUnits="userSpaceOnUse">
<stop stop-color="#7ED4EF"/>
<stop offset="0.2294" stop-color="#66BFE6"/>
<stop offset="0.711" stop-color="#298BD0"/>
<stop offset="1" stop-color="#0169C2"/>
</linearGradient>
</defs>
</svg>
