<svg width="1303" height="965" viewBox="0 0 1303 965" fill="none" xmlns="http://www.w3.org/2000/svg">
<g opacity="0.44">
<path opacity="0.44" d="M545.006 573.336L447.647 467.974L1240.37 -145L1337.73 -39.6265L545.006 573.336Z" fill="url(#paint0_radial_2288_979)"/>
<path opacity="0.44" d="M1227.86 539.654L1147.82 453.034L1786.96 -41.1788L1867 45.4302L1227.86 539.654Z" fill="url(#paint1_radial_2288_979)"/>
<path opacity="0.44" d="M696.966 189.052L665.748 155.267L969.48 -79.5867L1000.7 -45.8014L696.966 189.052Z" fill="url(#paint2_radial_2288_979)"/>
<path opacity="0.44" d="M877.211 715.086L815.486 648.28L1182.24 364.701L1243.95 431.495L877.211 715.086Z" fill="url(#paint3_radial_2288_979)"/>
<path opacity="0.44" d="M1012.09 470.12L942.067 394.343L1446.41 4.35144L1516.43 80.1286L1012.09 470.12Z" fill="url(#paint4_radial_2288_979)"/>
<path opacity="0.44" d="M580.504 736.099L489.158 637.232L952.248 279.154L1043.59 378.01L580.504 736.099Z" fill="url(#paint5_radial_2288_979)"/>
<path opacity="0.44" d="M1234.59 849.634L1200.56 812.789L1477.74 598.458L1511.79 635.303L1234.59 849.634Z" fill="url(#paint6_radial_2288_979)"/>
<path opacity="0.44" d="M1184.26 722.414L1131.81 665.641L1558.94 335.356L1611.41 392.129L1184.26 722.414Z" fill="url(#paint7_radial_2288_979)"/>
</g>
<g opacity="0.11">
<path opacity="0.11" d="M884.439 638.214C923.968 638.214 956.014 611.913 956.014 579.47C956.014 547.027 923.968 520.726 884.439 520.726C844.909 520.726 812.864 547.027 812.864 579.47C812.864 611.913 844.909 638.214 884.439 638.214Z" fill="url(#paint8_linear_2288_979)"/>
<path opacity="0.11" d="M963.761 882.648C1042.69 882.648 1106.68 830.133 1106.68 765.352C1106.68 700.571 1042.69 648.056 963.761 648.056C884.831 648.056 820.845 700.571 820.845 765.352C820.845 830.133 884.831 882.648 963.761 882.648Z" fill="url(#paint9_linear_2288_979)"/>
<path opacity="0.11" d="M1006.05 513.218C1136.02 513.218 1241.38 426.746 1241.38 320.077C1241.38 213.409 1136.02 126.937 1006.05 126.937C876.085 126.937 770.725 213.409 770.725 320.077C770.725 426.746 876.085 513.218 1006.05 513.218Z" fill="url(#paint10_linear_2288_979)"/>
<path opacity="0.11" d="M1342.59 770.285C1437.16 770.285 1513.83 707.364 1513.83 629.747C1513.83 552.13 1437.16 489.208 1342.59 489.208C1248.02 489.208 1171.36 552.13 1171.36 629.747C1171.36 707.364 1248.02 770.285 1342.59 770.285Z" fill="url(#paint11_linear_2288_979)"/>
<path opacity="0.11" d="M587.274 603.571C640.151 603.571 683.016 568.39 683.016 524.993C683.016 481.596 640.151 446.415 587.274 446.415C534.398 446.415 491.533 481.596 491.533 524.993C491.533 568.39 534.398 603.571 587.274 603.571Z" fill="url(#paint12_linear_2288_979)"/>
</g>
<g opacity="0.72">
<g opacity="0.72">
<path opacity="0.72" d="M1378.39 269.924L1222.22 401.904L1220.04 399.578L1376.2 267.599L1378.39 269.924ZM1381.79 273.53L1225.62 405.509L1227.8 407.834L1383.97 275.855L1381.79 273.53ZM1387.38 279.47L1231.21 411.449L1233.4 413.774L1389.56 281.795L1387.38 279.47ZM1392.96 285.4L1236.79 417.38L1238.98 419.705L1395.15 287.725L1392.96 285.4ZM1398.54 291.34L1242.38 423.32L1244.56 425.645L1400.73 293.665L1398.54 291.34ZM1404.13 297.271L1247.96 429.25L1250.14 431.575L1406.31 299.596L1404.13 297.271ZM1409.72 303.211L1253.55 435.19L1255.74 437.515L1411.9 305.536L1409.72 303.211ZM1415.3 309.142L1259.13 441.121L1261.32 443.446L1417.49 311.467L1415.3 309.142ZM1420.88 315.082L1264.72 447.061L1266.9 449.386L1423.07 317.407L1420.88 315.082ZM1426.47 321.012L1270.3 452.992L1272.48 455.317L1428.65 323.337L1426.47 321.012ZM1432.06 326.952L1275.89 458.932L1278.08 461.257L1434.24 329.277L1432.06 326.952ZM1437.64 332.883L1281.47 464.862L1283.66 467.187L1439.83 335.208L1437.64 332.883ZM1443.22 338.823L1287.06 470.802L1289.24 473.127L1445.41 341.148L1443.22 338.823ZM1448.81 344.753L1292.64 476.733L1294.82 479.058L1450.99 347.079L1448.81 344.753ZM1454.39 350.693L1298.22 482.673L1300.41 484.998L1456.57 353.019L1454.39 350.693ZM1459.98 356.633L1303.81 488.613L1306 490.938L1462.17 358.959L1459.98 356.633ZM1465.56 362.564L1309.39 494.543L1311.58 496.869L1467.75 364.889L1465.56 362.564ZM1471.14 368.504L1314.98 500.483L1317.16 502.809L1473.33 370.829L1471.14 368.504ZM1476.73 374.435L1320.56 506.414L1322.74 508.739L1478.91 376.76L1476.73 374.435ZM1482.32 380.375L1326.15 512.354L1328.34 514.679L1484.5 382.7L1482.32 380.375ZM1487.9 386.305L1331.73 518.285L1333.92 520.61L1490.09 388.63L1487.9 386.305ZM1493.48 392.245L1337.32 524.225L1339.5 526.55L1495.67 394.57L1493.48 392.245ZM1499.07 398.176L1342.9 530.155L1345.08 532.48L1501.25 400.501L1499.07 398.176Z" fill="white"/>
</g>
<g opacity="0.72">
<path opacity="0.72" d="M1188.51 541.678L936.727 754.464L933.201 750.717L1184.99 537.931L1188.51 541.678ZM1193.99 547.495L942.2 760.291L945.726 764.037L1197.52 551.251L1193.99 547.495ZM1202.99 557.069L951.209 769.855L954.736 773.602L1206.53 560.815L1202.99 557.069ZM1212 566.633L960.209 779.429L963.735 783.175L1215.53 570.389L1212 566.633ZM1221 576.207L969.218 788.993L972.744 792.74L1224.54 579.953L1221 576.207ZM1230.01 585.771L978.217 798.567L981.744 802.313L1233.54 589.527L1230.01 585.771ZM1239.01 595.345L987.227 808.131L990.753 811.878L1242.54 599.091L1239.01 595.345ZM1248.02 604.918L996.226 817.705L999.752 821.451L1251.55 608.665L1248.02 604.918ZM1257.02 614.483L1005.24 827.278L1008.76 831.025L1260.55 618.239L1257.02 614.483ZM1266.03 624.056L1014.23 836.843L1017.76 840.589L1269.55 627.803L1266.03 624.056ZM1275.03 633.621L1023.24 846.416L1026.77 850.163L1278.56 637.377L1275.03 633.621ZM1284.04 643.194L1032.24 855.981L1035.77 859.727L1287.56 646.941L1284.04 643.194ZM1293.04 652.759L1041.25 865.554L1044.78 869.301L1296.57 656.515L1293.04 652.759ZM1302.04 662.332L1050.25 875.118L1053.78 878.865L1305.57 666.079L1302.04 662.332ZM1311.05 671.906L1059.26 884.692L1062.79 888.439L1314.58 675.653L1311.05 671.906ZM1320.05 681.47L1068.26 894.266L1071.79 898.012L1323.58 685.226L1320.05 681.47ZM1329.06 691.044L1077.27 903.83L1080.8 907.577L1332.59 694.791L1329.06 691.044ZM1338.06 700.608L1086.27 913.404L1089.8 917.15L1341.59 704.364L1338.06 700.608ZM1347.07 710.182L1095.28 922.968L1098.8 926.715L1350.6 713.928L1347.07 710.182ZM1356.07 719.746L1104.28 932.542L1107.8 936.288L1359.6 723.502L1356.07 719.746ZM1365.08 729.32L1113.29 942.106L1116.81 945.853L1368.61 733.066L1365.08 729.32ZM1374.08 738.894L1122.29 951.68L1125.81 955.426L1377.61 742.64L1374.08 738.894ZM1383.09 748.458L1131.3 961.253L1134.82 965L1386.61 752.214L1383.09 748.458Z" fill="white"/>
</g>
<g opacity="0.72">
<path opacity="0.72" d="M973.827 209.093L831.695 329.202L829.708 327.084L971.83 206.975L973.827 209.093ZM976.916 212.379L834.794 332.487L836.78 334.605L978.902 214.497L976.916 212.379ZM982.002 217.782L839.87 337.891L841.856 340.009L983.988 219.891L982.002 217.782ZM987.077 223.185L844.955 343.294L846.942 345.412L989.064 225.304L987.077 223.185ZM992.163 228.58L850.041 348.688L852.028 350.806L994.15 230.698L992.163 228.58ZM997.249 233.983L855.117 354.092L857.103 356.21L999.226 236.101L997.249 233.983ZM1002.32 239.386L860.202 359.495L862.189 361.613L1004.31 241.504L1002.32 239.386ZM1007.41 244.79L865.288 364.899L867.275 367.017L1009.4 246.908L1007.41 244.79ZM1012.5 250.193L870.374 370.302L872.361 372.42L1014.48 252.311L1012.5 250.193ZM1017.57 255.587L875.45 375.696L877.436 377.814L1019.56 257.705L1017.57 255.587ZM1022.66 260.991L880.535 381.099L882.522 383.218L1024.64 263.109L1022.66 260.991ZM1027.74 266.394L885.621 386.503L887.608 388.621L1029.73 268.512L1027.74 266.394ZM1032.82 271.798L890.697 391.906L892.684 394.024L1034.81 273.916L1032.82 271.798ZM1037.9 277.201L895.783 397.31L897.769 399.428L1039.89 279.319L1037.9 277.201ZM1042.99 282.595L900.868 402.704L902.855 404.822L1044.98 284.713L1042.99 282.595ZM1048.07 287.998L905.944 408.107L907.931 410.225L1050.06 290.117L1048.07 287.998ZM1053.15 293.402L911.03 413.511L913.017 415.629L1055.14 295.52L1053.15 293.402ZM1058.24 298.805L916.116 418.914L918.102 421.032L1060.22 300.923L1058.24 298.805ZM1063.32 304.209L921.191 424.318L923.178 426.436L1065.3 306.327L1063.32 304.209ZM1068.4 309.603L926.277 429.721L928.264 431.839L1070.4 311.721L1068.4 309.603ZM1073.48 315.006L931.363 435.115L933.349 437.233L1075.47 317.124L1073.48 315.006ZM1078.57 320.41L936.439 440.518L938.425 442.637L1080.55 322.528L1078.57 320.41ZM1083.65 325.813L941.524 445.922L943.511 448.04L1085.63 327.931L1083.65 325.813Z" fill="white"/>
</g>
<g opacity="0.72">
<path opacity="0.72" d="M732.275 505.322L627.859 593.566L626.398 592.012L730.815 503.769L732.275 505.322ZM734.55 507.741L630.133 595.985L631.593 597.538L736.01 509.295L734.55 507.741ZM738.284 511.704L633.868 599.948L635.328 601.501L739.745 513.258L738.284 511.704ZM742.019 515.677L637.603 603.921L639.063 605.474L743.479 517.23L742.019 515.677ZM745.754 519.65L641.338 607.893L642.798 609.446L747.214 521.203L745.754 519.65ZM749.489 523.613L645.063 611.856L646.523 613.41L750.939 525.166L749.489 523.613ZM753.224 527.585L648.797 615.829L650.258 617.382L754.674 529.139L753.224 527.585ZM756.949 531.548L652.532 619.792L653.992 621.345L758.409 533.102L756.949 531.548ZM760.683 535.521L656.267 623.765L657.727 625.318L762.144 537.074L760.683 535.521ZM764.418 539.484L660.002 627.728L661.462 629.281L765.878 541.037L764.418 539.484ZM768.153 543.457L663.737 631.7L665.197 633.253L769.623 545.01L768.153 543.457ZM771.888 547.429L667.472 635.673L668.932 637.226L773.348 548.983L771.888 547.429ZM775.623 551.392L671.206 639.636L672.667 641.189L777.083 552.946L775.623 551.392ZM779.357 555.365L674.941 643.608L676.401 645.162L780.818 556.918L779.357 555.365ZM783.092 559.328L678.676 647.572L680.136 649.125L784.552 560.881L783.092 559.328ZM786.827 563.301L682.411 651.544L683.871 653.097L788.287 564.854L786.827 563.301ZM790.562 567.273L686.146 655.517L687.606 657.07L792.022 568.826L790.562 567.273ZM794.297 571.236L689.881 659.48L691.341 661.033L795.757 572.79L794.297 571.236ZM798.032 575.209L693.615 663.452L695.076 665.006L799.492 576.762L798.032 575.209ZM801.766 579.172L697.35 667.416L698.81 668.969L803.227 580.725L801.766 579.172ZM805.501 583.145L701.085 671.388L702.545 672.941L806.961 584.698L805.501 583.145ZM809.236 587.108L704.82 675.351L706.28 676.905L810.696 588.661L809.236 587.108ZM812.971 591.08L708.555 679.324L710.015 680.877L814.431 592.634L812.971 591.08Z" fill="white"/>
</g>
<g opacity="0.72">
<path opacity="0.72" d="M650.417 285.363L553.897 366.932L552.546 365.492L649.066 283.922L650.417 285.363ZM652.522 287.594L556.003 369.163L557.354 370.603L653.873 289.034L652.522 287.594ZM655.969 291.265L559.45 372.834L560.801 374.275L657.32 292.705L655.969 291.265ZM659.426 294.927L562.906 376.496L564.257 377.937L660.777 296.367L659.426 294.927ZM662.873 298.598L566.353 380.168L567.704 381.608L664.223 300.039L662.873 298.598ZM666.329 302.27L569.81 383.839L571.161 385.279L667.68 303.71L666.329 302.27ZM669.776 305.941L573.257 387.51L574.607 388.95L671.127 307.381L669.776 305.941ZM673.233 309.603L576.713 391.172L578.064 392.612L674.584 311.043L673.233 309.603ZM676.679 313.274L580.16 394.843L581.511 396.284L678.03 314.714L676.679 313.274ZM680.136 316.945L583.617 398.515L584.968 399.955L681.487 318.386L680.136 316.945ZM683.583 320.607L587.064 402.177L588.414 403.617L684.934 322.048L683.583 320.607ZM687.04 324.279L590.52 405.848L591.871 407.288L688.391 325.719L687.04 324.279ZM690.486 327.95L593.967 409.519L595.318 410.96L691.837 329.39L690.486 327.95ZM693.943 331.612L597.424 413.181L598.775 414.621L695.294 333.052L693.943 331.612ZM697.39 335.283L600.87 416.853L602.221 418.293L698.741 336.724L697.39 335.283ZM700.847 338.955L604.327 420.524L605.678 421.964L702.198 340.385L700.847 338.955ZM704.303 342.616L607.784 424.186L609.135 425.626L705.654 344.057L704.303 342.616ZM707.75 346.288L611.231 427.857L612.582 429.297L709.101 347.728L707.75 346.288ZM711.207 349.959L614.687 431.528L616.038 432.969L712.558 351.399L711.207 349.959ZM714.654 353.63L618.134 435.2L619.485 436.64L716.004 355.071L714.654 353.63ZM718.11 357.292L621.591 438.862L622.942 440.302L719.461 358.733L718.11 357.292ZM721.557 360.964L625.038 442.533L626.388 443.973L722.908 362.404L721.557 360.964ZM725.014 364.635L628.494 446.204L629.845 447.645L726.365 366.075L725.014 364.635Z" fill="white"/>
</g>
<g opacity="0.72">
<path opacity="0.72" d="M925.433 524.375L861.425 578.475L860.531 577.525L924.539 523.424L925.433 524.375ZM926.824 525.853L862.815 579.953L863.709 580.904L927.718 526.804L926.824 525.853ZM929.108 528.282L865.1 582.382L865.994 583.333L930.002 529.233L929.108 528.282ZM931.403 530.72L867.394 584.82L868.288 585.771L932.297 531.671L931.403 530.72ZM933.687 533.149L869.679 587.249L870.573 588.2L934.581 534.1L933.687 533.149ZM935.982 535.587L871.973 589.687L872.867 590.638L936.876 536.538L935.982 535.587ZM938.267 538.016L874.258 592.116L875.152 593.067L939.161 538.966L938.267 538.016ZM940.561 540.454L876.553 594.554L877.447 595.505L941.455 541.405L940.561 540.454ZM942.846 542.882L878.837 596.983L879.731 597.934L943.74 543.833L942.846 542.882ZM945.14 545.321L881.132 599.421L882.026 600.372L946.034 546.271L945.14 545.321ZM947.425 547.749L883.416 601.85L884.31 602.8L948.319 548.7L947.425 547.749ZM949.719 550.178L885.711 604.278L886.605 605.229L950.613 551.129L949.719 550.178ZM952.004 552.616L887.995 606.716L888.889 607.667L952.898 553.567L952.004 552.616ZM954.299 555.045L890.29 609.145L891.184 610.096L955.193 555.996L954.299 555.045ZM956.583 557.483L892.575 611.583L893.469 612.534L957.477 558.434L956.583 557.483ZM958.868 559.912L894.859 614.012L895.753 614.963L959.762 560.863L958.868 559.912ZM961.162 562.35L897.154 616.45L898.048 617.401L962.056 563.301L961.162 562.35ZM963.447 564.779L899.438 618.879L900.332 619.83L964.341 565.729L963.447 564.779ZM965.741 567.217L901.733 621.317L902.627 622.268L966.635 568.168L965.741 567.217ZM968.026 569.645L904.017 623.746L904.911 624.697L968.92 570.596L968.026 569.645ZM970.321 572.074L906.312 626.174L907.206 627.125L971.215 573.025L970.321 572.074ZM972.605 574.512L908.597 628.613L909.491 629.563L973.499 575.463L972.605 574.512ZM974.9 576.941L910.891 631.041L911.785 631.992L975.794 577.892L974.9 576.941Z" fill="white"/>
</g>
<g opacity="0.72">
<path opacity="0.72" d="M804.111 708.12L740.102 762.221L739.208 761.27L803.217 707.169L804.111 708.12ZM805.511 709.598L741.503 763.698L742.397 764.649L806.405 710.549L805.511 709.598ZM807.796 712.027L743.787 766.127L744.681 767.078L808.69 712.978L807.796 712.027ZM810.09 714.465L746.082 768.565L746.976 769.516L810.984 715.416L810.09 714.465ZM812.375 716.894L748.366 770.994L749.26 771.945L813.269 717.845L812.375 716.894ZM814.669 719.332L750.661 773.432L751.555 774.383L815.563 720.283L814.669 719.332ZM816.954 721.761L752.945 775.861L753.839 776.812L817.848 722.711L816.954 721.761ZM819.239 724.199L755.23 778.299L756.124 779.25L820.133 725.15L819.239 724.199ZM821.533 726.627L757.525 780.728L758.419 781.679L822.427 727.578L821.533 726.627ZM823.818 729.056L759.809 783.156L760.703 784.107L824.712 730.007L823.818 729.056ZM826.112 731.494L762.104 785.595L762.998 786.545L827.006 732.445L826.112 731.494ZM828.397 733.923L764.388 788.023L765.282 788.974L829.291 734.874L828.397 733.923ZM830.691 736.361L766.683 790.461L767.577 791.412L831.585 737.312L830.691 736.361ZM832.976 738.79L768.967 792.89L769.861 793.841L833.87 739.741L832.976 738.79ZM835.271 741.228L771.262 795.328L772.156 796.279L836.165 742.179L835.271 741.228ZM837.555 743.657L773.547 797.757L774.441 798.708L838.449 744.608L837.555 743.657ZM839.85 746.095L775.841 800.195L776.735 801.146L840.744 747.046L839.85 746.095ZM842.134 748.524L778.126 802.624L779.02 803.575L843.028 749.474L842.134 748.524ZM844.429 750.952L780.42 805.053L781.314 806.003L845.323 751.903L844.429 750.952ZM846.713 753.39L782.705 807.491L783.599 808.442L847.607 754.341L846.713 753.39ZM848.998 755.819L784.989 809.92L785.883 810.87L849.892 756.77L848.998 755.819ZM851.293 758.257L787.284 812.358L788.178 813.308L852.187 759.208L851.293 758.257ZM853.577 760.686L789.569 814.786L790.463 815.737L854.471 761.637L853.577 760.686Z" fill="white"/>
</g>
<g opacity="0.72">
<path opacity="0.72" d="M1362.36 511.714L1265.84 593.283L1264.49 591.843L1361.01 510.274L1362.36 511.714ZM1364.45 513.945L1267.93 595.514L1269.29 596.955L1365.8 515.385L1364.45 513.945ZM1367.91 517.616L1271.39 599.186L1272.74 600.626L1369.26 519.057L1367.91 517.616ZM1371.36 521.288L1274.84 602.857L1276.19 604.297L1372.71 522.728L1371.36 521.288ZM1374.81 524.949L1278.29 606.519L1279.65 607.959L1376.17 526.39L1374.81 524.949ZM1378.26 528.621L1281.74 610.19L1283.09 611.63L1379.61 530.061L1378.26 528.621ZM1381.72 532.292L1285.2 613.861L1286.55 615.302L1383.07 533.732L1381.72 532.292ZM1385.16 535.963L1288.64 617.533L1290 618.973L1386.52 537.404L1385.16 535.963ZM1388.62 539.625L1292.1 621.195L1293.45 622.635L1389.97 541.066L1388.62 539.625ZM1392.07 543.297L1295.55 624.866L1296.9 626.306L1393.42 544.737L1392.07 543.297ZM1395.52 546.968L1299.01 628.537L1300.36 629.978L1396.88 548.408L1395.52 546.968ZM1398.97 550.63L1302.45 632.209L1303.8 633.649L1400.32 552.08L1398.97 550.63ZM1402.43 554.301L1305.91 635.871L1307.26 637.311L1403.78 555.742L1402.43 554.301ZM1405.87 557.973L1309.36 639.542L1310.71 640.982L1407.23 559.413L1405.87 557.973ZM1409.33 561.635L1312.81 643.204L1314.16 644.644L1410.68 563.075L1409.33 561.635ZM1412.78 565.306L1316.26 646.875L1317.61 648.315L1414.13 566.746L1412.78 565.306ZM1416.23 568.977L1319.72 650.546L1321.07 651.987L1417.59 570.417L1416.23 568.977ZM1419.68 572.648L1323.16 654.218L1324.51 655.658L1421.03 574.089L1419.68 572.648ZM1423.14 576.31L1326.62 657.88L1327.97 659.32L1424.49 577.751L1423.14 576.31ZM1426.59 579.982L1330.07 661.551L1331.42 662.991L1427.94 581.422L1426.59 579.982ZM1430.04 583.653L1333.52 665.222L1334.87 666.663L1431.39 585.093L1430.04 583.653ZM1433.49 587.315L1336.97 668.884L1338.32 670.324L1434.84 588.755L1433.49 587.315ZM1436.95 590.986L1340.43 672.556L1341.78 673.996L1438.3 592.427L1436.95 590.986Z" fill="white"/>
</g>
</g>
<path d="M860.811 414.255C843.407 414.255 829.256 401.497 829.256 385.827C829.256 370.157 843.417 357.399 860.811 357.399C878.216 357.399 892.367 370.157 892.367 385.827C892.367 401.497 878.205 414.255 860.811 414.255ZM860.811 358.479C844.081 358.479 830.465 370.745 830.465 385.817C830.465 400.889 844.081 413.156 860.811 413.156C877.542 413.156 891.157 400.889 891.157 385.817C891.157 370.745 877.542 358.479 860.811 358.479Z" fill="url(#paint13_linear_2288_979)"/>
<path d="M770.116 264.188C732.277 264.188 701.482 236.454 701.482 202.356C701.482 168.258 732.267 140.524 770.116 140.524C807.955 140.524 838.75 168.258 838.75 202.356C838.75 236.454 807.955 264.188 770.116 264.188ZM770.116 142.906C733.722 142.906 704.115 169.579 704.115 202.366C704.115 235.152 733.722 261.825 770.116 261.825C806.51 261.825 836.117 235.152 836.117 202.366C836.117 169.579 806.51 142.906 770.116 142.906Z" fill="url(#paint14_linear_2288_979)"/>
<path d="M784.01 678.535C737.415 678.535 699.502 644.389 699.502 602.412C699.502 560.435 737.405 526.279 784.01 526.279C830.615 526.279 868.507 560.426 868.507 602.412C868.518 644.379 830.605 678.535 784.01 678.535ZM784.01 529.192C739.203 529.192 702.745 562.036 702.745 602.402C702.745 642.769 739.203 675.613 784.01 675.613C828.817 675.613 865.275 642.769 865.275 602.402C865.275 562.036 828.817 529.192 784.01 529.192Z" fill="url(#paint15_linear_2288_979)"/>
<path d="M1115.49 620.348C1098.09 620.348 1083.94 607.59 1083.94 591.92C1083.94 576.241 1098.1 563.492 1115.49 563.492C1132.89 563.492 1147.05 576.25 1147.05 591.92C1147.05 607.59 1132.9 620.348 1115.49 620.348ZM1115.49 564.582C1098.76 564.582 1085.15 576.848 1085.15 591.92C1085.15 606.993 1098.76 619.259 1115.49 619.259C1132.22 619.259 1145.84 606.993 1145.84 591.92C1145.84 576.848 1132.22 564.582 1115.49 564.582Z" fill="url(#paint16_linear_2288_979)"/>
<path d="M1204.56 284.448C1187.16 284.448 1173 271.69 1173 256.02C1173 240.35 1187.17 227.592 1204.56 227.592C1221.95 227.592 1236.12 240.35 1236.12 256.02C1236.12 271.69 1221.97 284.448 1204.56 284.448ZM1204.56 228.682C1187.83 228.682 1174.21 240.948 1174.21 256.02C1174.21 271.093 1187.83 283.359 1204.56 283.359C1221.29 283.359 1234.91 271.093 1234.91 256.02C1234.91 240.938 1221.3 228.682 1204.56 228.682Z" fill="url(#paint17_linear_2288_979)"/>
<path d="M1233.09 440.311C1221.11 440.311 1211.37 431.535 1211.37 420.745C1211.37 409.954 1221.11 401.179 1233.09 401.179C1245.06 401.179 1254.81 409.954 1254.81 420.745C1254.81 431.535 1245.06 440.311 1233.09 440.311ZM1233.09 401.931C1221.57 401.931 1212.2 410.369 1212.2 420.745C1212.2 431.121 1221.57 439.558 1233.09 439.558C1244.6 439.558 1253.97 431.121 1253.97 420.745C1253.97 410.369 1244.6 401.931 1233.09 401.931Z" fill="url(#paint18_linear_2288_979)"/>
<path d="M992.524 261.083C980.547 261.083 970.806 252.308 970.806 241.517C970.806 230.726 980.547 221.951 992.524 221.951C1004.5 221.951 1014.24 230.726 1014.24 241.517C1014.24 252.308 1004.5 261.083 992.524 261.083ZM992.524 222.713C981.007 222.713 971.641 231.151 971.641 241.527C971.641 251.903 981.007 260.34 992.524 260.34C1004.04 260.34 1013.41 251.903 1013.41 241.527C1013.41 231.151 1004.04 222.713 992.524 222.713Z" fill="url(#paint19_linear_2288_979)"/>
<path d="M669.177 460.735C657.199 460.735 647.459 451.96 647.459 441.169C647.459 430.378 657.199 421.603 669.177 421.603C681.155 421.603 690.896 430.378 690.896 441.169C690.896 451.96 681.155 460.735 669.177 460.735ZM669.177 422.355C657.66 422.355 648.294 430.793 648.294 441.169C648.294 451.545 657.66 459.983 669.177 459.983C680.695 459.983 690.061 451.545 690.061 441.169C690.061 430.802 680.695 422.355 669.177 422.355Z" fill="url(#paint20_linear_2288_979)"/>
<path d="M575.335 323.204C563.357 323.204 553.617 314.429 553.617 303.638C553.617 292.847 563.357 284.072 575.335 284.072C587.313 284.072 597.054 292.847 597.054 303.638C597.054 314.429 587.313 323.204 575.335 323.204ZM575.335 284.834C563.818 284.834 554.452 293.272 554.452 303.648C554.452 314.024 563.818 322.462 575.335 322.462C586.853 322.462 596.219 314.024 596.219 303.648C596.219 293.272 586.853 284.834 575.335 284.834Z" fill="url(#paint21_linear_2288_979)"/>
<path d="M956.538 554.833C944.56 554.833 934.819 546.057 934.819 535.267C934.819 524.476 944.56 515.701 956.538 515.701C968.515 515.701 978.256 524.476 978.256 535.267C978.256 546.057 968.515 554.833 956.538 554.833ZM956.538 516.453C945.02 516.453 935.654 524.891 935.654 535.267C935.654 545.643 945.02 554.081 956.538 554.081C968.055 554.081 977.421 545.643 977.421 535.267C977.421 524.9 968.055 516.453 956.538 516.453Z" fill="url(#paint22_linear_2288_979)"/>
<g opacity="0.68">
<path opacity="0.68" d="M272.657 372.751L198.061 429.636" stroke="white" stroke-width="2" stroke-miterlimit="10" stroke-linecap="round"/>
<path opacity="0.68" d="M75.5856 450.86L1 507.745" stroke="white" stroke-width="2" stroke-miterlimit="10" stroke-linecap="round"/>
<path opacity="0.68" d="M286.744 206.966L212.147 263.86" stroke="white" stroke-width="2" stroke-miterlimit="10" stroke-linecap="round"/>
<path opacity="0.68" d="M485.132 402.133L410.547 459.018" stroke="white" stroke-width="2" stroke-miterlimit="10" stroke-linecap="round"/>
<path opacity="0.68" d="M473.818 548.941L399.222 605.826" stroke="white" stroke-width="2" stroke-miterlimit="10" stroke-linecap="round"/>
<path opacity="0.68" d="M756.704 622.634L682.108 679.528" stroke="white" stroke-width="2" stroke-miterlimit="10" stroke-linecap="round"/>
<path opacity="0.68" d="M764.1 352.722L689.504 409.607" stroke="white" stroke-width="2" stroke-miterlimit="10" stroke-linecap="round"/>
<path opacity="0.68" d="M782.019 487.668L707.433 544.553" stroke="white" stroke-width="2" stroke-miterlimit="10" stroke-linecap="round"/>
<path opacity="0.68" d="M723.618 813.009L649.032 869.904" stroke="white" stroke-width="2" stroke-miterlimit="10" stroke-linecap="round"/>
<path opacity="0.68" d="M216.922 550.802L142.336 607.687" stroke="white" stroke-width="2" stroke-miterlimit="10" stroke-linecap="round"/>
<path opacity="0.68" d="M491.565 729.991L416.98 786.876" stroke="white" stroke-width="2" stroke-miterlimit="10" stroke-linecap="round"/>
</g>
<path d="M1173.74 515.894C1241.57 515.894 1296.55 466.36 1296.55 405.258C1296.55 344.155 1241.57 294.622 1173.74 294.622C1105.92 294.622 1050.94 344.155 1050.94 405.258C1050.94 466.36 1105.92 515.894 1173.74 515.894Z" fill="url(#paint23_linear_2288_979)"/>
<path d="M1284.44 251.922C1352.27 251.922 1407.25 202.389 1407.25 141.286C1407.25 80.1835 1352.27 30.6501 1284.44 30.6501C1216.62 30.6501 1161.64 80.1835 1161.64 141.286C1161.64 202.389 1216.62 251.922 1284.44 251.922Z" fill="url(#paint24_linear_2288_979)"/>
<path d="M700.947 769.759C800.641 769.759 881.459 696.951 881.459 607.137C881.459 517.323 800.641 444.515 700.947 444.515C601.252 444.515 520.434 517.323 520.434 607.137C520.434 696.951 601.252 769.759 700.947 769.759Z" fill="url(#paint25_linear_2288_979)"/>
<path d="M884.2 342.249C983.894 342.249 1064.71 269.441 1064.71 179.627C1064.71 89.8135 983.894 17.005 884.2 17.005C784.505 17.005 703.687 89.8135 703.687 179.627C703.687 269.441 784.505 342.249 884.2 342.249Z" fill="url(#paint26_linear_2288_979)"/>
<defs>
<radialGradient id="paint0_radial_2288_979" cx="0" cy="0" r="1" gradientUnits="userSpaceOnUse" gradientTransform="translate(844.58 155.086) rotate(47.2649) scale(84.3422 548.68)">
<stop/>
<stop offset="1" stop-opacity="0"/>
</radialGradient>
<radialGradient id="paint1_radial_2288_979" cx="0" cy="0" r="1" gradientUnits="userSpaceOnUse" gradientTransform="translate(1467.8 200.711) rotate(47.2553) scale(69.3405 442.374)">
<stop/>
<stop offset="1" stop-opacity="0"/>
</radialGradient>
<radialGradient id="paint2_radial_2288_979" cx="0" cy="0" r="1" gradientUnits="userSpaceOnUse" gradientTransform="translate(818.027 35.64) rotate(47.2753) scale(27.0369 210.25)">
<stop/>
<stop offset="1" stop-opacity="0"/>
</radialGradient>
<radialGradient id="paint3_radial_2288_979" cx="0" cy="0" r="1" gradientUnits="userSpaceOnUse" gradientTransform="translate(998.645 502.885) rotate(47.266) scale(53.4665 253.85)">
<stop/>
<stop offset="1" stop-opacity="0"/>
</radialGradient>
<radialGradient id="paint4_radial_2288_979" cx="0" cy="0" r="1" gradientUnits="userSpaceOnUse" gradientTransform="translate(1194.34 194.953) rotate(47.268) scale(60.6567 349.093)">
<stop/>
<stop offset="1" stop-opacity="0"/>
</radialGradient>
<radialGradient id="paint5_radial_2288_979" cx="0" cy="0" r="1" gradientUnits="userSpaceOnUse" gradientTransform="translate(719.934 453.192) rotate(47.2656) scale(79.1306 320.529)">
<stop/>
<stop offset="1" stop-opacity="0"/>
</radialGradient>
<radialGradient id="paint6_radial_2288_979" cx="0" cy="0" r="1" gradientUnits="userSpaceOnUse" gradientTransform="translate(1339.32 703.396) rotate(47.2649) scale(29.492 191.857)">
<stop/>
<stop offset="1" stop-opacity="0"/>
</radialGradient>
<radialGradient id="paint7_radial_2288_979" cx="0" cy="0" r="1" gradientUnits="userSpaceOnUse" gradientTransform="translate(1345.67 497.051) rotate(47.2649) scale(45.4456 295.642)">
<stop/>
<stop offset="1" stop-opacity="0"/>
</radialGradient>
<linearGradient id="paint8_linear_2288_979" x1="824.044" y1="529.908" x2="914.235" y2="639.799" gradientUnits="userSpaceOnUse">
<stop stop-color="#A0F1FF" stop-opacity="0"/>
<stop offset="0.9933" stop-color="#E1A8FF"/>
</linearGradient>
<linearGradient id="paint9_linear_2288_979" x1="1070.55" y1="853.002" x2="856.953" y2="592.749" gradientUnits="userSpaceOnUse">
<stop stop-color="#A0F1FF" stop-opacity="0"/>
<stop offset="0.9933" stop-color="#E1A8FF"/>
</linearGradient>
<linearGradient id="paint10_linear_2288_979" x1="807.5" y1="157.121" x2="1104.03" y2="518.418" gradientUnits="userSpaceOnUse">
<stop stop-color="#A0F1FF" stop-opacity="0"/>
<stop offset="0.9933" stop-color="#E1A8FF"/>
</linearGradient>
<linearGradient id="paint11_linear_2288_979" x1="1510.54" y1="767.579" x2="1239.77" y2="437.673" gradientUnits="userSpaceOnUse">
<stop stop-color="#A0F1FF" stop-opacity="0"/>
<stop offset="0.9933" stop-color="#E1A8FF"/>
</linearGradient>
<linearGradient id="paint12_linear_2288_979" x1="506.494" y1="458.691" x2="627.137" y2="605.686" gradientUnits="userSpaceOnUse">
<stop stop-color="#A0F1FF" stop-opacity="0"/>
<stop offset="0.9933" stop-color="#E1A8FF"/>
</linearGradient>
<linearGradient id="paint13_linear_2288_979" x1="829.251" y1="385.822" x2="892.365" y2="385.822" gradientUnits="userSpaceOnUse">
<stop stop-color="#A0F1FF" stop-opacity="0"/>
<stop offset="0.9887" stop-color="#A0F1FF"/>
</linearGradient>
<linearGradient id="paint14_linear_2288_979" x1="701.483" y1="202.361" x2="838.746" y2="202.361" gradientUnits="userSpaceOnUse">
<stop stop-color="#A0F1FF" stop-opacity="0"/>
<stop offset="0.9887" stop-color="#A0F1FF"/>
</linearGradient>
<linearGradient id="paint15_linear_2288_979" x1="699.508" y1="602.403" x2="868.514" y2="602.403" gradientUnits="userSpaceOnUse">
<stop stop-color="#A0F1FF" stop-opacity="0"/>
<stop offset="0.9887" stop-color="#A0F1FF"/>
</linearGradient>
<linearGradient id="paint16_linear_2288_979" x1="1083.94" y1="591.918" x2="1147.05" y2="591.918" gradientUnits="userSpaceOnUse">
<stop stop-color="#A0F1FF" stop-opacity="0"/>
<stop offset="0.9887" stop-color="#A0F1FF"/>
</linearGradient>
<linearGradient id="paint17_linear_2288_979" x1="1173.01" y1="256.017" x2="1236.12" y2="256.017" gradientUnits="userSpaceOnUse">
<stop stop-color="#A0F1FF" stop-opacity="0"/>
<stop offset="0.9887" stop-color="#A0F1FF"/>
</linearGradient>
<linearGradient id="paint18_linear_2288_979" x1="1211.38" y1="420.744" x2="1254.8" y2="420.744" gradientUnits="userSpaceOnUse">
<stop stop-color="#A0F1FF" stop-opacity="0"/>
<stop offset="0.9887" stop-color="#A0F1FF"/>
</linearGradient>
<linearGradient id="paint19_linear_2288_979" x1="970.811" y1="241.521" x2="1014.24" y2="241.521" gradientUnits="userSpaceOnUse">
<stop stop-color="#A0F1FF" stop-opacity="0"/>
<stop offset="0.9887" stop-color="#A0F1FF"/>
</linearGradient>
<linearGradient id="paint20_linear_2288_979" x1="647.467" y1="441.171" x2="690.896" y2="441.171" gradientUnits="userSpaceOnUse">
<stop stop-color="#A0F1FF" stop-opacity="0"/>
<stop offset="0.9887" stop-color="#A0F1FF"/>
</linearGradient>
<linearGradient id="paint21_linear_2288_979" x1="553.624" y1="303.645" x2="597.053" y2="303.645" gradientUnits="userSpaceOnUse">
<stop stop-color="#A0F1FF" stop-opacity="0"/>
<stop offset="0.9887" stop-color="#A0F1FF"/>
</linearGradient>
<linearGradient id="paint22_linear_2288_979" x1="934.827" y1="535.268" x2="978.256" y2="535.268" gradientUnits="userSpaceOnUse">
<stop stop-color="#A0F1FF" stop-opacity="0"/>
<stop offset="0.9887" stop-color="#A0F1FF"/>
</linearGradient>
<linearGradient id="paint23_linear_2288_979" x1="1010.32" y1="524.336" x2="1248.3" y2="310.685" gradientUnits="userSpaceOnUse">
<stop offset="0.00518829" stop-color="#FF7FFF" stop-opacity="0"/>
<stop offset="0.061" stop-color="#F589FF" stop-opacity="0.0566"/>
<stop offset="0.3721" stop-color="#C0BBFF" stop-opacity="0.3722"/>
<stop offset="0.642" stop-color="#99E0FF" stop-opacity="0.6459"/>
<stop offset="0.8572" stop-color="#82F7FF" stop-opacity="0.8643"/>
<stop offset="0.991" stop-color="#79FFFF"/>
</linearGradient>
<linearGradient id="paint24_linear_2288_979" x1="1415.63" y1="27.4155" x2="1180.21" y2="279.196" gradientUnits="userSpaceOnUse">
<stop offset="0.00404646" stop-color="#232BFF" stop-opacity="0"/>
<stop offset="0.0258" stop-color="#2731FF" stop-opacity="0.0221"/>
<stop offset="0.2871" stop-color="#5175FF" stop-opacity="0.2875"/>
<stop offset="0.5232" stop-color="#73AAFF" stop-opacity="0.5272"/>
<stop offset="0.7262" stop-color="#8CD1FF" stop-opacity="0.7334"/>
<stop offset="0.8881" stop-color="#9BE8FF" stop-opacity="0.8978"/>
<stop offset="0.9887" stop-color="#A0F1FF"/>
</linearGradient>
<linearGradient id="paint25_linear_2288_979" x1="597.521" y1="696.314" x2="877.813" y2="398.547" gradientUnits="userSpaceOnUse">
<stop offset="0.00404646" stop-color="#C92BFF" stop-opacity="0"/>
<stop offset="0.0258" stop-color="#C831FF" stop-opacity="0.0221"/>
<stop offset="0.2871" stop-color="#BA75FF" stop-opacity="0.2875"/>
<stop offset="0.5232" stop-color="#AFAAFF" stop-opacity="0.5272"/>
<stop offset="0.7262" stop-color="#A7D1FF" stop-opacity="0.7334"/>
<stop offset="0.8881" stop-color="#A2E8FF" stop-opacity="0.8978"/>
<stop offset="0.9887" stop-color="#A0F1FF"/>
</linearGradient>
<linearGradient id="paint26_linear_2288_979" x1="710.459" y1="336.141" x2="968.931" y2="49.2339" gradientUnits="userSpaceOnUse">
<stop stop-color="#A0F1FF" stop-opacity="0"/>
<stop offset="0.9887" stop-color="#A0F1FF"/>
</linearGradient>
</defs>
</svg>
