<svg width="665" height="641" viewBox="0 0 665 641" fill="none" xmlns="http://www.w3.org/2000/svg">
<g id="Frame 3847">
<g id="Group" opacity="0.54">
<path id="Vector" opacity="0.54" d="M850.596 298.987C863.787 321.838 850.039 352.837 827.576 366.653C805.111 380.481 777.111 381.184 750.79 379.375C724.468 377.577 697.656 373.731 672.003 379.857C618.912 392.548 585.157 443.378 558.148 490.813C531.14 538.249 501.168 590.206 449.8 608.696C409.524 623.187 364.994 613.512 322.304 616.595C247.782 621.971 177.802 669.951 145.945 737.546" stroke="url(#paint0_linear_2114_1016)" stroke-width="0.8669" stroke-miterlimit="10"/>
<path id="Vector_2" opacity="0.54" d="M848.523 292.174C861.718 314.989 848.197 345.943 825.928 359.968C823.941 361.226 821.896 362.367 819.823 363.431C798.669 374.161 773.415 374.89 749.504 373.52C744.888 373.257 740.254 372.93 735.621 372.604C713.867 371.064 691.962 369.553 670.873 374.709C664.038 376.375 657.515 378.681 651.291 381.528C609.295 400.709 580.844 444.601 557.67 486.042C555.99 489.057 554.295 492.082 552.588 495.118C527.304 540.06 498.579 586.322 451.765 605.178C438.375 610.569 424.476 613.675 409.911 614.856C392.718 616.259 374.975 615.016 357.549 613.984C345.651 613.282 333.838 612.688 322.099 613.06C316.581 613.236 311.07 613.645 305.576 614.302C270.601 618.468 236.571 632.752 208.042 654.097C179.446 675.495 156.255 703.844 141.319 736.288" stroke="url(#paint1_linear_2114_1016)" stroke-width="0.8669" stroke-miterlimit="10"/>
<path id="Vector_3" opacity="0.54" d="M846.449 285.361C859.66 308.153 846.367 339.05 824.293 353.283C822.316 354.556 820.292 355.723 818.23 356.801C797.236 367.723 772.079 368.747 748.206 367.663C743.595 367.45 738.98 367.175 734.353 366.898C712.643 365.597 690.761 364.286 669.732 369.548C662.917 371.252 656.404 373.572 650.19 376.445C608.258 395.793 579.99 439.696 557.169 481.256C555.513 484.273 553.842 487.314 552.17 490.354C527.326 535.413 499.211 581.31 453.685 601.629C440.385 607.571 426.574 611.632 411.669 613.176C394.054 615.004 375.694 613.401 357.937 611.788C345.819 610.689 333.835 609.596 321.884 609.512C316.257 609.477 310.65 609.678 305.019 610.158C269.192 613.199 233.75 627.685 204.486 649.809C175.154 671.973 151.775 701.524 136.703 735.044" stroke="url(#paint2_linear_2114_1016)" stroke-width="0.8669" stroke-miterlimit="10"/>
<path id="Vector_4" opacity="0.54" d="M844.388 278.55C857.603 301.306 844.549 332.159 822.658 346.587C820.705 347.875 818.702 349.07 816.65 350.161C795.802 361.285 770.755 362.606 746.921 361.797C742.329 361.635 737.706 361.42 733.097 361.195C711.43 360.132 689.585 359.021 668.604 364.388C661.81 366.12 655.318 368.467 649.114 371.353C607.261 390.858 579.163 434.77 556.694 476.46C555.061 479.493 553.425 482.538 551.778 485.581C527.372 530.769 499.85 576.336 455.641 598.084C442.417 604.588 428.709 609.583 413.453 611.487C395.414 613.752 376.439 611.777 358.351 609.57C346.001 608.075 333.861 606.47 321.696 605.943C315.974 605.688 310.245 605.689 304.489 605.994C267.81 607.909 230.958 622.586 200.957 645.487C170.89 668.429 147.323 699.172 132.104 733.764" stroke="url(#paint3_linear_2114_1016)" stroke-width="0.8669" stroke-miterlimit="10"/>
<path id="Vector_5" opacity="0.54" d="M842.316 271.725C855.534 294.457 842.708 325.253 821.024 339.892C819.08 341.204 817.101 342.403 815.071 343.521C794.381 354.849 769.433 356.452 745.638 355.918C741.05 355.818 736.447 355.642 731.832 355.465C710.208 354.641 688.386 353.742 667.454 359.2C660.68 360.972 654.199 363.332 648.016 366.246C606.229 385.907 578.324 429.843 556.185 471.648C554.575 474.684 552.962 477.744 551.35 480.804C527.382 526.108 500.456 571.432 457.562 594.523C444.425 601.602 430.796 607.527 415.201 609.782C396.728 612.483 377.148 610.137 358.729 607.348C346.161 605.445 333.849 603.353 321.46 602.367C315.642 601.904 309.79 601.706 303.899 601.822C266.369 602.599 228.104 617.49 197.368 641.158C166.567 664.866 142.811 696.812 127.445 732.478" stroke="url(#paint4_linear_2114_1016)" stroke-width="0.8669" stroke-miterlimit="10"/>
<path id="Vector_6" opacity="0.54" d="M840.243 264.912C853.478 287.609 840.877 318.373 819.389 333.208C817.467 334.536 815.497 335.759 813.477 336.891C792.946 348.424 768.098 350.309 744.34 350.062C739.758 350.011 735.161 349.886 730.564 349.76C708.984 349.174 687.185 348.475 666.314 354.039C659.56 355.837 653.101 358.225 646.915 361.162C605.193 380.991 577.472 424.927 555.684 466.861C554.097 469.913 552.522 472.965 550.932 476.04C527.404 521.461 501.077 566.602 459.492 590.988C446.417 598.651 432.906 605.487 416.969 608.115C398.074 611.241 377.878 608.536 359.115 605.164C346.315 602.863 333.833 600.271 321.243 598.831C315.317 598.158 309.368 597.751 303.34 597.691C264.959 597.342 225.283 612.423 193.812 636.869C162.286 661.358 138.331 694.493 122.817 731.232" stroke="url(#paint5_linear_2114_1016)" stroke-width="0.8669" stroke-miterlimit="10"/>
<path id="Vector_7" opacity="0.54" d="M838.17 258.1C851.408 280.772 839.046 311.48 817.741 326.522C815.842 327.865 813.881 329.115 811.884 330.262C791.5 341.984 766.76 344.178 743.055 344.195C738.479 344.194 733.899 344.132 729.308 344.056C707.773 343.697 686.008 343.21 665.186 348.879C658.452 350.717 652.001 353.13 645.838 356.082C604.182 376.067 576.642 420.025 555.207 462.078C553.645 465.132 552.092 468.2 550.538 471.28C527.45 516.817 501.715 561.837 461.448 587.444C448.444 595.705 435.04 603.449 418.753 606.426C399.434 609.99 378.622 606.912 359.529 602.947C346.509 600.25 333.857 597.158 321.055 595.262C315.034 594.368 308.963 593.762 302.798 593.525C263.565 592.05 222.477 607.334 190.271 632.546C158.011 657.801 133.868 692.139 118.206 729.951" stroke="url(#paint6_linear_2114_1016)" stroke-width="0.8669" stroke-miterlimit="10"/>
<path id="Vector_8" opacity="0.54" d="M836.109 251.288C849.363 273.926 837.216 304.587 816.119 319.827C814.231 321.184 812.292 322.449 810.304 323.621C790.079 335.548 765.438 338.024 741.771 338.328C737.213 338.379 732.626 338.365 728.053 338.341C706.549 338.218 684.82 337.945 664.059 343.706C657.346 345.571 650.904 348.01 644.762 350.99C603.172 371.13 575.816 415.099 554.732 457.282C553.204 460.353 551.676 463.424 550.146 466.507C527.497 512.161 502.383 557.124 463.404 583.899C450.469 592.783 437.176 601.4 420.534 604.749C400.793 608.75 379.365 605.3 359.941 600.753C346.688 597.659 333.879 594.069 320.852 591.715C314.722 590.611 308.555 589.797 302.253 589.383C262.17 586.771 219.67 602.257 186.728 628.247C153.731 654.28 129.402 689.809 113.604 728.696" stroke="url(#paint7_linear_2114_1016)" stroke-width="0.8669" stroke-miterlimit="10"/>
<path id="Vector_9" opacity="0.54" d="M834.037 244.464C847.296 267.065 835.388 297.683 814.473 313.13C812.606 314.514 810.678 315.792 808.712 316.98C788.633 329.109 764.115 331.882 740.474 332.46C735.921 332.573 731.352 332.61 726.785 332.635C705.325 332.752 683.619 332.677 662.918 338.545C656.214 340.436 649.806 342.903 643.662 345.895C602.15 366.204 574.963 410.182 554.233 452.484C552.729 455.558 551.224 458.644 549.729 461.743C527.531 507.515 503.032 552.458 465.336 580.352C452.468 589.869 439.273 599.358 422.306 603.058C402.143 607.485 380.098 603.675 360.342 598.547C346.869 595.057 333.891 590.955 320.652 588.145C314.426 586.832 308.139 585.806 301.711 585.217C260.776 581.479 216.876 597.169 183.188 623.924C149.457 650.723 124.937 687.467 108.994 727.416" stroke="url(#paint8_linear_2114_1016)" stroke-width="0.8669" stroke-miterlimit="10"/>
<path id="Vector_10" opacity="0.54" d="M831.964 237.651C845.238 260.23 833.546 290.789 812.838 306.446C810.981 307.843 809.074 309.149 807.131 310.352C787.212 322.673 762.791 325.741 739.189 326.593C734.642 326.756 730.079 326.843 725.518 326.918C704.102 327.273 682.432 327.399 661.779 333.371C655.095 335.301 648.697 337.783 642.575 340.802C601.128 361.266 574.125 405.255 553.734 447.685C552.254 450.762 550.783 453.865 549.313 456.967C527.554 502.856 503.7 547.843 467.269 576.792C454.479 586.958 441.385 597.305 424.065 601.366C403.478 606.23 380.817 602.06 360.719 596.337C347.016 592.438 333.878 587.849 320.414 584.581C314.093 583.048 307.684 581.823 301.119 581.057C259.333 576.181 214.022 592.073 179.597 619.607C145.132 647.172 120.411 685.118 104.333 726.141" stroke="url(#paint9_linear_2114_1016)" stroke-width="0.8669" stroke-miterlimit="10"/>
<path id="Vector_11" opacity="0.54" d="M829.89 230.838C843.169 253.381 831.714 283.908 811.204 299.75C809.369 301.163 807.485 302.483 805.539 303.71C785.766 316.234 761.455 319.598 737.893 320.725C733.363 320.939 728.806 321.076 724.251 321.201C702.88 321.782 681.231 322.132 660.64 328.198C653.977 330.155 647.6 332.663 641.487 335.708C600.107 356.328 573.286 400.328 553.247 442.888C551.79 445.98 550.343 449.086 548.908 452.193C527.589 498.199 504.398 543.282 469.212 573.246C456.499 584.072 443.508 595.254 425.836 599.676C404.826 604.977 381.549 600.435 361.121 594.118C347.186 589.821 333.89 584.734 320.214 581.01C313.784 579.267 307.279 577.834 300.576 576.891C257.939 570.889 211.216 586.984 176.055 615.296C140.854 643.639 115.946 682.776 99.7201 724.872" stroke="url(#paint10_linear_2114_1016)" stroke-width="0.8669" stroke-miterlimit="10"/>
<path id="Vector_12" opacity="0.54" d="M827.829 224.027C841.123 246.547 829.896 277.017 809.568 293.066C807.755 294.506 805.881 295.84 803.958 297.082C784.343 309.81 760.132 313.456 736.62 314.859C732.097 315.123 727.544 315.322 723.007 315.499C701.679 316.318 680.054 316.868 659.512 323.037C652.868 325.034 646.502 327.556 640.398 330.627C599.082 351.415 572.456 395.426 552.758 438.103C551.325 441.198 549.913 444.321 548.501 447.443C527.621 493.565 505.126 538.773 471.155 569.713C458.529 581.211 445.628 593.227 427.616 598.011C406.185 603.737 382.291 598.836 361.531 591.937C347.376 587.244 333.91 581.658 320.022 577.477C313.497 575.514 306.869 573.881 300.03 572.761C256.541 565.634 208.406 581.931 172.51 611.009C136.574 640.118 111.478 680.458 95.1046 723.628" stroke="url(#paint11_linear_2114_1016)" stroke-width="0.8669" stroke-miterlimit="10"/>
<path id="Vector_13" opacity="0.54" d="M825.758 217.202C839.056 239.686 828.055 270.111 807.934 286.37C806.131 287.823 804.279 289.185 802.365 290.452C782.908 303.384 758.795 307.325 735.322 309.003C730.803 309.329 726.27 309.567 721.739 309.793C700.455 310.852 678.866 311.602 658.372 317.876C651.749 319.9 645.39 322.459 639.309 325.545C598.059 346.489 571.616 390.511 552.27 433.318C550.859 436.428 549.471 439.554 548.096 442.68C527.653 488.932 505.885 534.304 473.097 566.179C460.556 578.363 447.738 591.187 429.386 596.332C407.532 602.496 383.022 597.222 361.918 589.74C347.531 584.651 333.897 578.552 319.794 573.928C313.161 571.754 306.425 569.911 299.46 568.616C255.121 560.351 205.574 576.85 168.943 606.707C132.271 636.594 106.988 678.126 90.4785 722.37" stroke="url(#paint12_linear_2114_1016)" stroke-width="0.8669" stroke-miterlimit="10"/>
<path id="Vector_14" opacity="0.54" d="M823.684 210.389C836.998 232.851 826.225 263.219 806.286 279.684C804.506 281.153 802.664 282.528 800.771 283.823C781.462 296.945 757.459 301.182 734.025 303.135C729.512 303.51 724.996 303.812 720.472 304.076C699.232 305.373 677.665 306.335 657.233 312.702C650.631 314.753 644.293 317.34 638.221 320.451C597.05 341.552 570.775 385.596 551.782 428.521C550.408 431.636 549.043 434.776 547.692 437.906C527.688 484.274 506.669 529.839 475.03 562.619C462.597 575.504 449.849 589.134 431.145 594.64C408.867 601.242 383.742 595.596 362.309 587.52C347.703 582.022 333.897 575.436 319.582 570.355C312.853 567.973 306.007 565.932 298.906 564.448C253.715 555.058 202.756 571.76 165.39 602.382C127.984 633.036 102.512 675.77 85.8553 721.088" stroke="url(#paint13_linear_2114_1016)" stroke-width="0.8669" stroke-miterlimit="10"/>
<path id="Vector_15" opacity="0.54" d="M821.623 203.578C834.941 226.003 824.407 256.328 804.664 272.99C802.907 274.474 801.074 275.874 799.204 277.184C780.053 290.51 756.147 295.042 732.753 297.269C728.258 297.696 723.735 298.046 719.216 298.372C698.009 299.894 676.476 301.069 656.104 307.542C649.523 309.632 643.195 312.233 637.133 315.358C596.029 336.614 569.937 380.669 551.283 423.723C549.932 426.853 548.591 429.996 547.276 433.13C527.711 479.615 507.46 525.412 476.962 559.072C464.636 572.669 451.961 587.082 432.916 592.95C410.217 599.976 384.487 593.972 362.71 585.313C347.872 579.418 333.908 572.333 319.369 566.795C312.544 564.193 305.576 561.952 298.338 560.291C252.296 549.775 199.927 566.667 161.824 598.068C123.682 629.5 98.0233 673.425 81.2188 719.816" stroke="url(#paint14_linear_2114_1016)" stroke-width="0.8669" stroke-miterlimit="10"/>
<path id="Vector_16" opacity="0.54" d="M819.55 196.765C832.883 219.168 822.565 249.434 803.029 266.306C801.28 267.815 799.47 269.231 797.61 270.555C778.606 284.083 754.812 288.898 731.466 291.415C726.977 291.891 722.473 292.293 717.96 292.668C696.796 294.429 675.3 295.804 654.976 302.382C648.415 304.499 642.109 307.127 636.056 310.278C595.016 331.702 569.107 375.767 550.807 418.939C549.479 422.072 548.175 425.22 546.88 428.382C527.755 474.983 508.318 521.042 478.916 555.539C466.72 569.853 454.093 585.056 434.697 591.285C411.574 598.749 385.228 592.372 363.12 583.132C348.062 576.841 333.928 569.256 319.176 563.262C312.243 560.449 305.179 558.001 297.804 556.163C250.911 544.509 197.128 561.615 158.291 593.782C119.414 625.981 93.5674 671.109 76.6152 718.573" stroke="url(#paint15_linear_2114_1016)" stroke-width="0.8669" stroke-miterlimit="10"/>
<path id="Vector_17" opacity="0.54" d="M817.478 189.94C830.816 212.307 820.735 242.541 801.383 259.608C799.657 261.133 797.869 262.564 796.019 263.913C777.173 277.646 753.477 282.743 730.171 285.534C725.687 286.073 721.189 286.524 716.694 286.951C695.573 288.95 674.099 290.537 653.837 297.208C647.296 299.365 641 302.006 634.969 305.184C593.995 326.764 568.268 370.84 550.32 414.142C549.015 417.29 547.734 420.441 546.476 423.607C527.79 470.325 509.179 516.648 480.86 551.994C468.805 567.036 456.205 583.004 436.468 589.594C412.922 597.496 385.96 590.747 363.508 580.923C348.219 574.235 333.928 566.14 318.963 559.702C311.935 556.669 304.748 554.02 297.248 552.008C249.503 539.228 194.31 556.525 154.738 589.47C115.124 622.446 89.0904 668.766 71.9907 717.303" stroke="url(#paint16_linear_2114_1016)" stroke-width="0.8669" stroke-miterlimit="10"/>
<path id="Vector_18" opacity="0.54" d="M815.405 183.128C828.746 205.47 818.905 235.649 799.749 252.912C798.034 254.45 796.267 255.909 794.427 257.271C775.741 271.196 752.142 276.6 728.875 279.666C724.396 280.254 719.916 280.757 715.427 281.234C694.35 283.472 672.9 285.258 652.698 292.035C646.178 294.219 639.892 296.886 633.869 300.089C592.961 321.824 567.418 365.911 549.821 409.344C548.54 412.495 547.294 415.662 546.06 418.832C527.813 465.666 510.074 512.271 482.794 548.434C470.89 564.22 458.316 580.951 438.241 587.892C414.273 596.218 386.694 589.11 363.912 578.692C348.403 571.609 333.942 563.013 318.752 556.117C311.616 552.874 304.321 550.016 296.683 547.826C248.088 533.909 191.482 551.42 151.175 585.131C110.827 618.874 84.6044 666.397 67.3692 716.009" stroke="url(#paint17_linear_2114_1016)" stroke-width="0.8669" stroke-miterlimit="10"/>
<path id="Vector_19" opacity="0.54" d="M813.344 176.316C826.701 198.624 817.075 228.756 798.113 246.228C796.419 247.794 794.663 249.265 792.845 250.643C774.306 264.77 750.818 270.458 727.59 273.799C723.129 274.439 718.642 275.002 714.172 275.518C693.139 277.994 671.725 279.981 651.559 286.861C645.06 289.072 638.793 291.778 632.781 294.995C591.95 316.9 566.577 360.996 549.333 404.547C548.075 407.713 546.854 410.883 545.656 414.057C527.848 461.009 510.991 507.921 484.737 544.888C472.998 561.418 460.439 578.9 440.01 586.213C415.62 594.977 387.424 587.509 364.312 576.498C348.571 569.005 333.939 559.921 318.55 552.559C311.318 549.107 303.914 546.039 296.14 543.672C246.681 528.628 188.676 546.331 147.631 580.832C106.549 615.341 80.1379 664.067 62.7551 714.753" stroke="url(#paint18_linear_2114_1016)" stroke-width="0.8669" stroke-miterlimit="10"/>
<path id="Vector_20" opacity="0.54" d="M811.271 169.504C824.631 191.787 815.245 221.864 796.478 239.544C794.806 241.125 793.061 242.61 791.264 244.015C772.883 258.346 749.493 264.329 726.304 267.944C721.849 268.634 717.38 269.248 712.903 269.825C691.914 272.528 670.521 274.738 650.416 281.724C643.936 283.974 637.68 286.694 631.69 289.926C590.926 311.986 565.748 356.094 548.831 399.772C547.609 402.943 546.398 406.127 545.223 409.316C527.855 456.384 511.916 503.596 486.654 541.363C475.103 558.641 462.534 576.882 441.754 584.544C416.941 593.745 388.129 585.905 364.686 574.312C348.713 566.421 333.923 556.84 318.322 549.021C310.982 545.347 303.468 542.081 295.557 539.538C245.246 523.368 185.83 541.273 144.05 576.541C102.231 611.828 75.6217 661.743 58.1034 713.504" stroke="url(#paint19_linear_2114_1016)" stroke-width="0.8669" stroke-miterlimit="10"/>
<path id="Vector_21" opacity="0.54" d="M809.199 162.679C822.576 184.927 813.416 214.959 794.844 232.848C793.183 234.442 791.458 235.955 789.672 237.374C771.439 251.895 748.159 258.174 725.019 262.078C720.569 262.829 716.107 263.481 711.648 264.109C690.703 267.051 669.334 269.46 649.289 276.552C642.831 278.829 636.595 281.576 630.615 284.834C589.916 307.049 564.919 351.181 548.356 394.977C547.157 398.163 545.982 401.351 544.831 404.543C527.914 451.73 512.907 499.243 488.611 537.807C477.248 555.832 464.659 574.819 443.55 582.856C418.314 592.483 388.886 584.282 365.1 572.095C348.907 563.808 333.947 553.727 318.122 545.45C310.685 541.568 303.051 538.091 295.015 535.372C243.853 518.064 183.025 536.172 140.51 572.218C97.9563 608.271 71.1567 659.401 53.4923 712.223" stroke="url(#paint20_linear_2114_1016)" stroke-width="0.8669" stroke-miterlimit="10"/>
<path id="Vector_22" opacity="0.54" d="M807.126 155.866C820.506 178.09 811.573 208.077 793.198 226.151C791.559 227.76 789.844 229.298 788.081 230.732C770.005 245.457 746.823 252.03 723.724 256.197C719.28 256.999 714.834 257.714 710.381 258.392C689.468 261.57 668.147 264.182 648.15 271.378C641.711 273.695 635.487 276.455 629.515 279.739C588.882 302.122 564.069 346.252 547.857 390.178C546.682 393.367 545.53 396.571 544.415 399.767C527.936 447.083 513.896 494.902 490.543 534.26C479.39 553.047 466.769 572.779 445.309 581.164C419.65 591.228 389.606 582.656 365.489 569.886C349.064 561.203 333.948 550.611 317.908 541.89C310.376 537.799 302.633 534.112 294.459 531.217C242.446 512.783 180.218 531.094 136.956 567.905C93.6665 604.737 66.6798 657.058 48.8679 710.953" stroke="url(#paint21_linear_2114_1016)" stroke-width="0.8669" stroke-miterlimit="10"/>
<path id="Vector_23" opacity="0.54" d="M805.064 149.055C818.461 171.245 809.754 201.186 791.574 219.468C789.945 221.103 788.254 222.644 786.511 224.105C768.594 239.035 745.512 245.89 722.45 250.344C718.024 251.197 713.572 251.96 709.137 252.69C688.267 256.107 666.97 258.918 647.034 266.219C640.616 268.563 634.4 271.35 628.45 274.66C587.883 297.199 563.251 341.352 547.392 385.396C546.24 388.6 545.124 391.809 544.034 395.008C527.993 442.44 514.957 490.57 492.511 530.717C481.582 550.257 468.916 570.731 447.103 579.489C421.009 589.989 390.361 581.045 365.912 567.694C349.269 558.603 333.981 547.523 317.717 538.345C310.078 534.032 302.225 530.147 293.914 527.075C241.049 507.516 177.411 526.017 133.412 563.606C89.3884 601.204 62.2133 654.728 44.2658 709.698" stroke="url(#paint22_linear_2114_1016)" stroke-width="0.8669" stroke-miterlimit="10"/>
<path id="Vector_24" opacity="0.54" d="M802.991 142.242C816.391 164.408 807.924 194.294 789.926 212.783C788.32 214.433 786.65 216.001 784.906 217.474C767.135 232.606 744.162 239.758 721.141 244.474C716.721 245.377 712.286 246.204 707.858 246.971C687.033 250.614 665.758 253.649 645.883 261.044C639.485 263.427 633.292 266.229 627.35 269.565C586.861 292.261 562.4 336.423 546.893 380.598C545.765 383.805 544.672 387.028 543.616 390.245C528.015 437.793 515.984 486.222 494.441 527.181C483.759 547.489 471.025 568.702 448.873 577.81C422.357 588.735 391.092 579.432 366.3 565.498C349.425 556.009 333.978 544.431 317.502 534.797C309.766 530.276 301.803 526.192 293.357 522.931C239.641 502.234 174.59 520.95 129.857 559.305C85.1089 597.683 57.7348 652.397 39.6397 708.44" stroke="url(#paint23_linear_2114_1016)" stroke-width="0.8669" stroke-miterlimit="10"/>
<path id="Vector_25" opacity="0.54" d="M800.919 135.417C814.336 157.548 806.084 187.387 788.294 206.075C786.71 207.74 785.049 209.334 783.328 210.822C765.717 226.146 742.842 233.592 719.87 238.597C715.456 239.549 711.027 240.426 706.604 241.255C685.822 245.137 664.582 248.373 644.756 255.872C638.379 258.282 632.195 261.11 626.263 264.472C585.838 287.335 561.561 331.496 546.406 375.801C545.301 379.023 544.243 382.251 543.212 385.47C528.05 433.136 517.06 481.867 496.374 523.622C485.941 544.684 473.124 566.648 450.632 576.118C423.693 587.481 391.812 577.806 366.69 563.278C349.595 553.393 333.979 541.315 317.29 531.224C309.447 526.481 301.374 522.2 292.79 518.762C238.223 496.94 171.761 515.846 126.292 554.979C80.8098 594.123 53.2471 650.04 35.0045 707.156" stroke="url(#paint24_linear_2114_1016)" stroke-width="0.8669" stroke-miterlimit="10"/>
<path id="Vector_26" opacity="0.54" d="M798.846 128.604C812.266 150.711 804.254 180.495 786.646 199.389C785.071 201.08 783.434 202.677 781.721 204.203C764.256 219.729 741.491 227.471 718.558 232.751C714.161 233.767 709.739 234.682 705.322 235.56C684.584 239.681 663.368 243.116 643.59 250.719C637.234 253.157 631.069 256.023 625.149 259.387C584.791 282.406 560.695 326.59 545.881 371.011C544.8 374.236 543.767 377.467 542.77 380.703C528.047 428.486 518.113 477.509 498.28 520.083C488.118 541.916 475.209 564.605 452.365 574.435C425.003 586.235 392.507 576.188 367.053 561.078C349.726 550.796 333.941 538.206 317.038 527.671C309.099 522.72 300.906 518.227 292.197 514.614C236.779 491.654 168.904 510.774 122.687 550.684C76.4699 590.595 48.7187 647.714 30.3285 705.904" stroke="url(#paint25_linear_2114_1016)" stroke-width="0.8669" stroke-miterlimit="10"/>
<path id="Vector_27" opacity="0.54" d="M796.785 121.793C810.221 143.865 802.422 173.615 785.023 192.707C783.471 194.413 781.843 196.036 780.152 197.577C762.845 213.307 740.18 221.331 717.286 226.886C712.894 227.951 708.477 228.928 704.08 229.846C683.385 234.205 662.192 237.852 642.475 245.549C636.139 248.026 629.985 250.906 624.086 254.297C583.794 277.471 559.881 321.665 545.418 366.217C544.372 369.459 543.363 372.693 542.389 375.944C528.105 423.843 519.239 473.149 500.249 516.541C490.358 539.131 477.355 562.569 454.171 572.761C426.388 584.986 393.274 574.579 367.489 558.888C349.942 548.211 333.987 535.121 316.871 524.129C308.836 518.97 300.534 514.267 291.688 510.477C235.419 486.391 166.131 505.714 119.18 546.39C72.2267 587.078 44.2886 645.389 25.7508 704.652" stroke="url(#paint26_linear_2114_1016)" stroke-width="0.8669" stroke-miterlimit="10"/>
<path id="Vector_28" opacity="0.54" d="M794.712 114.981C808.151 137.028 800.592 166.722 783.387 186.023C781.845 187.742 780.239 189.392 778.57 190.949C761.412 206.869 738.856 215.19 715.999 221.031C711.614 222.147 707.215 223.175 702.822 224.154C682.171 228.752 661.013 232.599 641.345 240.401C635.03 242.905 628.885 245.811 622.995 249.227C582.77 272.557 559.05 316.776 544.928 361.444C543.906 364.689 542.919 367.938 541.981 371.194C528.137 419.21 520.365 468.788 502.189 513.019C492.596 536.371 479.464 560.54 455.939 571.095C427.733 583.757 394.002 572.99 367.876 556.692C350.098 545.605 333.984 532.028 316.644 520.58C308.502 515.198 300.09 510.297 291.106 506.331C233.985 481.119 163.288 500.632 115.6 542.086C67.9125 583.541 39.7859 643.055 21.1005 703.391" stroke="url(#paint27_linear_2114_1016)" stroke-width="0.8669" stroke-miterlimit="10"/>
<path id="Vector_29" opacity="0.54" d="M792.64 108.156C806.096 130.169 798.763 159.817 781.743 179.313C780.224 181.048 778.627 182.711 776.968 184.293C759.968 200.418 737.51 209.033 714.694 215.137C710.314 216.302 705.92 217.392 701.546 218.411C680.928 223.234 659.805 227.294 640.197 235.201C633.902 237.745 627.779 240.666 621.898 244.108C581.75 267.607 558.202 311.823 544.432 356.621C543.432 359.881 542.482 363.135 541.568 366.394C528.163 414.526 521.499 464.367 504.126 509.435C494.829 533.548 481.578 558.464 457.702 569.378C429.072 582.478 394.726 571.339 368.268 554.459C350.258 542.975 333.986 528.9 316.434 516.995C308.195 511.405 299.662 506.293 290.554 502.151C232.582 475.801 160.472 495.529 112.049 537.749C63.6256 579.982 35.312 640.687 16.4911 702.098" stroke="url(#paint28_linear_2114_1016)" stroke-width="0.8669" stroke-miterlimit="10"/>
<path id="Vector_30" opacity="0.54" d="M790.579 101.344C804.038 123.333 796.933 152.925 780.119 172.631C778.621 174.393 777.036 176.07 775.399 177.667C758.557 193.995 736.198 202.893 713.432 209.285C709.069 210.514 704.682 211.642 700.301 212.721C679.726 217.783 658.626 222.054 639.079 230.055C632.805 232.625 626.692 235.572 620.832 239.041C580.749 262.696 557.383 306.935 543.966 351.851C542.99 355.115 542.063 358.384 541.185 361.647C528.22 409.896 522.677 459.989 506.09 505.917C497.116 530.782 483.723 556.44 459.506 567.716C430.454 581.242 395.491 569.743 368.702 552.281C350.472 540.401 334.03 525.826 316.267 513.453C307.919 507.653 299.291 502.332 290.045 498.014C231.222 470.539 157.7 490.456 108.542 533.455C59.3838 576.454 30.8818 638.362 11.9133 700.847" stroke="url(#paint29_linear_2114_1016)" stroke-width="0.8669" stroke-miterlimit="10"/>
<path id="Vector_31" opacity="0.54" d="M788.506 94.5316C801.969 116.484 795.103 146.032 778.472 165.945C776.984 167.721 775.432 169.426 773.793 171.036C757.098 187.567 734.849 196.76 712.123 203.415C707.766 204.694 703.385 205.872 699.022 207.002C678.491 212.302 657.426 216.775 637.928 224.88C631.663 227.476 625.583 230.451 619.721 233.933C579.705 257.743 556.521 301.993 543.444 347.038C542.491 350.316 541.6 353.59 540.745 356.868C528.217 405.246 523.799 455.566 508 502.354C499.347 527.972 485.81 554.384 461.241 566.021C431.766 579.984 396.187 568.113 369.067 550.07C350.605 537.792 334.006 522.707 316.017 509.888C307.575 503.867 298.824 498.348 289.441 493.852C229.766 465.251 154.833 485.371 104.94 529.136C55.0454 572.914 26.3444 636.011 7.2404 699.57" stroke="url(#paint30_linear_2114_1016)" stroke-width="0.8669" stroke-miterlimit="10"/>
<path id="Vector_32" opacity="0.54" d="M786.432 87.7189C801.112 111.604 791.927 144.466 772.212 164.408C752.499 184.337 724.831 193.988 697.766 201.299C670.7 208.609 642.668 214.436 618.632 228.851C575.788 254.562 552.427 303.623 540.351 352.107C528.263 400.602 524.993 451.153 509.955 498.81C501.637 525.181 487.933 552.333 463.024 564.332C433.126 578.732 396.932 566.489 369.469 547.851C342.007 529.212 318.681 504.323 288.899 489.686C228.373 459.947 152.028 480.27 101.399 524.813C50.7704 569.357 21.8808 633.657 2.62929 698.29" stroke="url(#paint31_linear_2114_1016)" stroke-width="0.8669" stroke-miterlimit="10"/>
</g>
</g>
<defs>
<linearGradient id="paint0_linear_2114_1016" x1="160.048" y1="758.617" x2="844.907" y2="289.754" gradientUnits="userSpaceOnUse">
<stop stop-color="#7ED4EF"/>
<stop offset="0.2294" stop-color="#66BFE6"/>
<stop offset="0.711" stop-color="#298BD0"/>
<stop offset="1" stop-color="#0169C2"/>
</linearGradient>
<linearGradient id="paint1_linear_2114_1016" x1="154.077" y1="755.391" x2="843.266" y2="283.564" gradientUnits="userSpaceOnUse">
<stop stop-color="#7ED4EF"/>
<stop offset="0.2294" stop-color="#66BFE6"/>
<stop offset="0.711" stop-color="#298BD0"/>
<stop offset="1" stop-color="#0169C2"/>
</linearGradient>
<linearGradient id="paint2_linear_2114_1016" x1="148.109" y1="752.166" x2="841.626" y2="277.375" gradientUnits="userSpaceOnUse">
<stop stop-color="#7ED4EF"/>
<stop offset="0.2294" stop-color="#66BFE6"/>
<stop offset="0.711" stop-color="#298BD0"/>
<stop offset="1" stop-color="#0169C2"/>
</linearGradient>
<linearGradient id="paint3_linear_2114_1016" x1="142.563" y1="749.559" x2="840.409" y2="271.805" gradientUnits="userSpaceOnUse">
<stop stop-color="#7ED4EF"/>
<stop offset="0.2294" stop-color="#66BFE6"/>
<stop offset="0.711" stop-color="#298BD0"/>
<stop offset="1" stop-color="#0169C2"/>
</linearGradient>
<linearGradient id="paint4_linear_2114_1016" x1="137.742" y1="748.01" x2="839.915" y2="267.293" gradientUnits="userSpaceOnUse">
<stop stop-color="#7ED4EF"/>
<stop offset="0.2294" stop-color="#66BFE6"/>
<stop offset="0.711" stop-color="#298BD0"/>
<stop offset="1" stop-color="#0169C2"/>
</linearGradient>
<linearGradient id="paint5_linear_2114_1016" x1="132.964" y1="746.523" x2="839.466" y2="262.843" gradientUnits="userSpaceOnUse">
<stop stop-color="#7ED4EF"/>
<stop offset="0.2294" stop-color="#66BFE6"/>
<stop offset="0.711" stop-color="#298BD0"/>
<stop offset="1" stop-color="#0169C2"/>
</linearGradient>
<linearGradient id="paint6_linear_2114_1016" x1="128.232" y1="745.104" x2="839.061" y2="258.461" gradientUnits="userSpaceOnUse">
<stop stop-color="#7ED4EF"/>
<stop offset="0.2294" stop-color="#66BFE6"/>
<stop offset="0.711" stop-color="#298BD0"/>
<stop offset="1" stop-color="#0169C2"/>
</linearGradient>
<linearGradient id="paint7_linear_2114_1016" x1="123.549" y1="743.756" x2="838.707" y2="254.15" gradientUnits="userSpaceOnUse">
<stop stop-color="#7ED4EF"/>
<stop offset="0.2294" stop-color="#66BFE6"/>
<stop offset="0.711" stop-color="#298BD0"/>
<stop offset="1" stop-color="#0169C2"/>
</linearGradient>
<linearGradient id="paint8_linear_2114_1016" x1="118.973" y1="742.564" x2="838.459" y2="249.996" gradientUnits="userSpaceOnUse">
<stop stop-color="#7ED4EF"/>
<stop offset="0.2294" stop-color="#66BFE6"/>
<stop offset="0.711" stop-color="#298BD0"/>
<stop offset="1" stop-color="#0169C2"/>
</linearGradient>
<linearGradient id="paint9_linear_2114_1016" x1="114.484" y1="741.499" x2="838.297" y2="245.968" gradientUnits="userSpaceOnUse">
<stop stop-color="#7ED4EF"/>
<stop offset="0.2294" stop-color="#66BFE6"/>
<stop offset="0.711" stop-color="#298BD0"/>
<stop offset="1" stop-color="#0169C2"/>
</linearGradient>
<linearGradient id="paint10_linear_2114_1016" x1="110.048" y1="740.511" x2="838.189" y2="242.017" gradientUnits="userSpaceOnUse">
<stop stop-color="#7ED4EF"/>
<stop offset="0.2294" stop-color="#66BFE6"/>
<stop offset="0.711" stop-color="#298BD0"/>
<stop offset="1" stop-color="#0169C2"/>
</linearGradient>
<linearGradient id="paint11_linear_2114_1016" x1="105.649" y1="739.576" x2="838.117" y2="238.119" gradientUnits="userSpaceOnUse">
<stop stop-color="#7ED4EF"/>
<stop offset="0.2294" stop-color="#66BFE6"/>
<stop offset="0.711" stop-color="#298BD0"/>
<stop offset="1" stop-color="#0169C2"/>
</linearGradient>
<linearGradient id="paint12_linear_2114_1016" x1="101.276" y1="738.68" x2="838.071" y2="234.261" gradientUnits="userSpaceOnUse">
<stop stop-color="#7ED4EF"/>
<stop offset="0.2294" stop-color="#66BFE6"/>
<stop offset="0.711" stop-color="#298BD0"/>
<stop offset="1" stop-color="#0169C2"/>
</linearGradient>
<linearGradient id="paint13_linear_2114_1016" x1="96.9235" y1="737.812" x2="838.046" y2="230.431" gradientUnits="userSpaceOnUse">
<stop stop-color="#7ED4EF"/>
<stop offset="0.2294" stop-color="#66BFE6"/>
<stop offset="0.711" stop-color="#298BD0"/>
<stop offset="1" stop-color="#0169C2"/>
</linearGradient>
<linearGradient id="paint14_linear_2114_1016" x1="92.5861" y1="736.967" x2="838.035" y2="226.623" gradientUnits="userSpaceOnUse">
<stop stop-color="#7ED4EF"/>
<stop offset="0.2294" stop-color="#66BFE6"/>
<stop offset="0.711" stop-color="#298BD0"/>
<stop offset="1" stop-color="#0169C2"/>
</linearGradient>
<linearGradient id="paint15_linear_2114_1016" x1="88.2609" y1="736.14" x2="838.037" y2="222.834" gradientUnits="userSpaceOnUse">
<stop stop-color="#7ED4EF"/>
<stop offset="0.2294" stop-color="#66BFE6"/>
<stop offset="0.711" stop-color="#298BD0"/>
<stop offset="1" stop-color="#0169C2"/>
</linearGradient>
<linearGradient id="paint16_linear_2114_1016" x1="83.9452" y1="735.326" x2="838.048" y2="219.058" gradientUnits="userSpaceOnUse">
<stop stop-color="#7ED4EF"/>
<stop offset="0.2294" stop-color="#66BFE6"/>
<stop offset="0.711" stop-color="#298BD0"/>
<stop offset="1" stop-color="#0169C2"/>
</linearGradient>
<linearGradient id="paint17_linear_2114_1016" x1="79.6377" y1="734.524" x2="838.068" y2="215.294" gradientUnits="userSpaceOnUse">
<stop stop-color="#7ED4EF"/>
<stop offset="0.2294" stop-color="#66BFE6"/>
<stop offset="0.711" stop-color="#298BD0"/>
<stop offset="1" stop-color="#0169C2"/>
</linearGradient>
<linearGradient id="paint18_linear_2114_1016" x1="75.3364" y1="733.731" x2="838.093" y2="211.539" gradientUnits="userSpaceOnUse">
<stop stop-color="#7ED4EF"/>
<stop offset="0.2294" stop-color="#66BFE6"/>
<stop offset="0.711" stop-color="#298BD0"/>
<stop offset="1" stop-color="#0169C2"/>
</linearGradient>
<linearGradient id="paint19_linear_2114_1016" x1="71.0407" y1="732.947" x2="838.124" y2="207.792" gradientUnits="userSpaceOnUse">
<stop stop-color="#7ED4EF"/>
<stop offset="0.2294" stop-color="#66BFE6"/>
<stop offset="0.711" stop-color="#298BD0"/>
<stop offset="1" stop-color="#0169C2"/>
</linearGradient>
<linearGradient id="paint20_linear_2114_1016" x1="66.7494" y1="732.168" x2="838.16" y2="204.051" gradientUnits="userSpaceOnUse">
<stop stop-color="#7ED4EF"/>
<stop offset="0.2294" stop-color="#66BFE6"/>
<stop offset="0.711" stop-color="#298BD0"/>
<stop offset="1" stop-color="#0169C2"/>
</linearGradient>
<linearGradient id="paint21_linear_2114_1016" x1="62.4623" y1="731.395" x2="838.199" y2="200.316" gradientUnits="userSpaceOnUse">
<stop stop-color="#7ED4EF"/>
<stop offset="0.2294" stop-color="#66BFE6"/>
<stop offset="0.711" stop-color="#298BD0"/>
<stop offset="1" stop-color="#0169C2"/>
</linearGradient>
<linearGradient id="paint22_linear_2114_1016" x1="58.1783" y1="730.627" x2="838.242" y2="196.586" gradientUnits="userSpaceOnUse">
<stop stop-color="#7ED4EF"/>
<stop offset="0.2294" stop-color="#66BFE6"/>
<stop offset="0.711" stop-color="#298BD0"/>
<stop offset="1" stop-color="#0169C2"/>
</linearGradient>
<linearGradient id="paint23_linear_2114_1016" x1="53.8974" y1="729.864" x2="838.287" y2="192.86" gradientUnits="userSpaceOnUse">
<stop stop-color="#7ED4EF"/>
<stop offset="0.2294" stop-color="#66BFE6"/>
<stop offset="0.711" stop-color="#298BD0"/>
<stop offset="1" stop-color="#0169C2"/>
</linearGradient>
<linearGradient id="paint24_linear_2114_1016" x1="49.6186" y1="729.103" x2="838.335" y2="189.138" gradientUnits="userSpaceOnUse">
<stop stop-color="#7ED4EF"/>
<stop offset="0.2294" stop-color="#66BFE6"/>
<stop offset="0.711" stop-color="#298BD0"/>
<stop offset="1" stop-color="#0169C2"/>
</linearGradient>
<linearGradient id="paint25_linear_2114_1016" x1="45.3423" y1="728.346" x2="838.385" y2="185.419" gradientUnits="userSpaceOnUse">
<stop stop-color="#7ED4EF"/>
<stop offset="0.2294" stop-color="#66BFE6"/>
<stop offset="0.711" stop-color="#298BD0"/>
<stop offset="1" stop-color="#0169C2"/>
</linearGradient>
<linearGradient id="paint26_linear_2114_1016" x1="41.068" y1="727.592" x2="838.437" y2="181.703" gradientUnits="userSpaceOnUse">
<stop stop-color="#7ED4EF"/>
<stop offset="0.2294" stop-color="#66BFE6"/>
<stop offset="0.711" stop-color="#298BD0"/>
<stop offset="1" stop-color="#0169C2"/>
</linearGradient>
<linearGradient id="paint27_linear_2114_1016" x1="36.7952" y1="726.84" x2="838.491" y2="177.989" gradientUnits="userSpaceOnUse">
<stop stop-color="#7ED4EF"/>
<stop offset="0.2294" stop-color="#66BFE6"/>
<stop offset="0.711" stop-color="#298BD0"/>
<stop offset="1" stop-color="#0169C2"/>
</linearGradient>
<linearGradient id="paint28_linear_2114_1016" x1="32.5242" y1="726.09" x2="838.546" y2="174.277" gradientUnits="userSpaceOnUse">
<stop stop-color="#7ED4EF"/>
<stop offset="0.2294" stop-color="#66BFE6"/>
<stop offset="0.711" stop-color="#298BD0"/>
<stop offset="1" stop-color="#0169C2"/>
</linearGradient>
<linearGradient id="paint29_linear_2114_1016" x1="28.2543" y1="725.342" x2="838.603" y2="170.567" gradientUnits="userSpaceOnUse">
<stop stop-color="#7ED4EF"/>
<stop offset="0.2294" stop-color="#66BFE6"/>
<stop offset="0.711" stop-color="#298BD0"/>
<stop offset="1" stop-color="#0169C2"/>
</linearGradient>
<linearGradient id="paint30_linear_2114_1016" x1="23.9859" y1="724.596" x2="838.661" y2="166.859" gradientUnits="userSpaceOnUse">
<stop stop-color="#7ED4EF"/>
<stop offset="0.2294" stop-color="#66BFE6"/>
<stop offset="0.711" stop-color="#298BD0"/>
<stop offset="1" stop-color="#0169C2"/>
</linearGradient>
<linearGradient id="paint31_linear_2114_1016" x1="19.7186" y1="723.852" x2="838.719" y2="163.153" gradientUnits="userSpaceOnUse">
<stop stop-color="#7ED4EF"/>
<stop offset="0.2294" stop-color="#66BFE6"/>
<stop offset="0.711" stop-color="#298BD0"/>
<stop offset="1" stop-color="#0169C2"/>
</linearGradient>
</defs>
</svg>
